<?xml version="1.0" encoding="utf-8"?>
<!-- Generator: Adobe Illustrator 23.0.1, SVG Export Plug-In . SVG Version: 6.00 Build 0)  -->
<svg version="1.1" id="Layer_1" xmlns="http://www.w3.org/2000/svg" xmlns:xlink="http://www.w3.org/1999/xlink" x="0px" y="0px"
	 viewBox="0 0 56 56" style="enable-background:new 0 0 56 56;" xml:space="preserve">
<style type="text/css">
	.st0{fill:#1769FF;}
	.st1{fill:#FFFFFF;}
</style>
<rect class="st0" width="56" height="56"/>
<path class="st1" d="M18.85,14.35c1.35,0,2.58,0.12,3.69,0.36c1.11,0.24,2.06,0.63,2.86,1.17c0.79,0.54,1.41,1.26,1.84,2.16
	c0.44,0.9,0.65,2.01,0.65,3.33c0,1.43-0.32,2.62-0.97,3.57c-0.65,0.95-1.61,1.73-2.88,2.34c1.75,0.5,3.05,1.38,3.91,2.64
	c0.86,1.26,1.29,2.77,1.29,4.54c0,1.43-0.28,2.66-0.83,3.71c-0.56,1.04-1.3,1.9-2.24,2.56c-0.94,0.66-2.01,1.15-3.21,1.47
	c-1.21,0.32-2.46,0.48-3.71,0.48H5.52V14.35H18.85z M18.06,25.81c1.11,0,2.02-0.26,2.74-0.79c0.71-0.53,1.07-1.39,1.07-2.58
	c0-0.66-0.12-1.2-0.36-1.63c-0.24-0.42-0.56-0.75-0.95-0.99c-0.4-0.24-0.85-0.4-1.37-0.5c-0.53-0.09-1.07-0.14-1.61-0.14h-5.83v6.62
	L18.06,25.81L18.06,25.81z M18.41,37.83c0.61,0,1.19-0.06,1.75-0.18c0.56-0.12,1.04-0.32,1.47-0.6c0.42-0.28,0.76-0.65,1.01-1.13
	c0.25-0.48,0.38-1.08,0.38-1.82c0-1.45-0.41-2.49-1.23-3.11c-0.82-0.62-1.9-0.93-3.25-0.93h-6.78v7.77L18.41,37.83L18.41,37.83z
	 M37.08,37.23c0.85,0.82,2.06,1.23,3.65,1.23c1.14,0,2.12-0.28,2.93-0.85c0.82-0.57,1.32-1.17,1.51-1.8h4.96
	c-0.79,2.46-2.01,4.22-3.65,5.28c-1.64,1.06-3.62,1.59-5.95,1.59c-1.61,0-3.07-0.26-4.36-0.77c-1.3-0.52-2.39-1.25-3.29-2.2
	c-0.9-0.95-1.59-2.09-2.08-3.41c-0.49-1.32-0.73-2.78-0.73-4.36c0-1.53,0.25-2.96,0.75-4.28c0.5-1.32,1.22-2.47,2.14-3.43
	c0.92-0.96,2.03-1.73,3.31-2.28c1.28-0.56,2.7-0.83,4.26-0.83c1.75,0,3.27,0.34,4.56,1.01c1.3,0.67,2.36,1.58,3.19,2.72
	c0.83,1.14,1.43,2.43,1.81,3.89c0.37,1.45,0.5,2.97,0.4,4.56h-14.8C35.77,35.09,36.23,36.41,37.08,37.23L37.08,37.23z M43.45,26.44
	c-0.67-0.74-1.7-1.11-3.07-1.11c-0.9,0-1.65,0.15-2.24,0.46c-0.6,0.3-1.07,0.68-1.43,1.13c-0.36,0.45-0.61,0.93-0.75,1.43
	c-0.15,0.5-0.23,0.95-0.26,1.35h9.16C44.59,28.27,44.12,27.18,43.45,26.44z M34.73,15.78h11.45v3.17H34.73L34.73,15.78z"/>
</svg>
