<?xml version="1.0" encoding="utf-8"?>
<!-- Generator: Adobe Illustrator 23.0.1, SVG Export Plug-In . SVG Version: 6.00 Build 0)  -->
<svg version="1.1" id="Layer_1" xmlns="http://www.w3.org/2000/svg" xmlns:xlink="http://www.w3.org/1999/xlink" x="0px" y="0px"
	 viewBox="0 0 150 40" style="enable-background:new 0 0 150 40;" xml:space="preserve">
<style type="text/css">
	.st0{fill:#3AB54E;}
</style>
<g id="g270">
	<g id="g276" transform="translate(310.1016,67.3643)">
		<path id="path278" class="st0" d="M-191.59-33.73v-20.31h4.63v2.59c1.17-2.08,3.71-3.17,6.01-3.17c2.67,0,5,1.21,6.09,3.59
			c1.59-2.67,3.96-3.59,6.59-3.59c3.67,0,7.17,2.34,7.17,7.72v13.18h-4.67v-12.39c0-2.38-1.21-4.17-3.92-4.17
			c-2.54,0-4.21,2-4.21,4.5v12.05h-4.75v-12.39c0-2.34-1.17-4.17-3.92-4.17c-2.59,0-4.21,1.92-4.21,4.5v12.05H-191.59z
			 M-201.1-46.11c-0.08-2.38-1.67-4.5-5-4.5c-3.04,0-4.8,2.34-4.96,4.5H-201.1z M-196.47-39.52c-1.08,3.54-4.3,6.42-9.17,6.42
			c-5.5,0-10.38-4-10.38-10.88c0-6.42,4.75-10.68,9.88-10.68c6.26,0,9.93,4.13,9.93,10.55c0,0.79-0.08,1.46-0.13,1.54h-14.85
			c0.13,3.09,2.54,5.3,5.55,5.3c2.92,0,4.42-1.54,5.09-3.55L-196.47-39.52z M-223.95-46.11c-0.08-2.38-1.67-4.5-5-4.5
			c-3.04,0-4.8,2.34-4.96,4.5H-223.95z M-219.32-39.52c-1.08,3.54-4.3,6.42-9.17,6.42c-5.5,0-10.38-4-10.38-10.88
			c0-6.42,4.75-10.68,9.88-10.68c6.26,0,9.93,4.13,9.93,10.55c0,0.79-0.08,1.46-0.13,1.54h-14.85c0.13,3.09,2.54,5.3,5.55,5.3
			c2.92,0,4.42-1.54,5.09-3.55L-219.32-39.52z M-241.13-49.24c-0.54-0.08-1.08-0.13-1.59-0.13c-3.75,0-5.46,2.17-5.46,5.96v9.67
			h-4.84v-20.31h4.71v3.25c0.96-2.21,3.21-3.5,5.88-3.5c0.58,0,1.08,0.08,1.29,0.13V-49.24z M-269.24-37.36
			c3.17,0,5.38-2.71,5.38-6.63c0-3.92-2.17-6.42-5.38-6.42c-3.25,0-5.5,2.5-5.5,6.42C-274.75-40.11-272.62-37.36-269.24-37.36
			 M-269.78-33.19c-5.96,0-9.8-4.71-9.8-10.8c0-5.88,3.88-10.63,9.72-10.63c3.59,0,5.42,1.88,5.96,3.25v-2.67h4.71v16.6
			c0,1.67,0.17,3.29,0.21,3.71h-4.63c-0.08-0.46-0.21-1.54-0.21-2.92C-264.74-34.69-266.87-33.19-269.78-33.19"/>
	</g>
	<g id="g280" transform="translate(75.6543,127.79)">
		<path id="path282" class="st0" d="M-68.21-122.78c1.75,0,3.17,1.42,3.17,3.17c0,1.75-1.42,3.13-3.17,3.13
			c-1.71,0-3.13-1.38-3.13-3.13C-71.34-121.36-69.92-122.78-68.21-122.78"/>
	</g>
	<g id="g284" transform="translate(91.1309,76.1729)">
		<path id="path286" class="st0" d="M-76.35-46.71c-4.43,0-8.64-2.83-9.6-8.21h-5.18c1.05,8.19,7.49,13,14.78,13
			c7.55,0,12.05-4.8,13.39-9.8l-4.59-1.5C-68.55-49.88-71.39-46.71-76.35-46.71"/>
	</g>
	<g id="g288" transform="translate(116.9551,116.5654)">
		<path id="path290" class="st0" d="M-89.94-106.24c-1.64-3.19-4.67-5.75-9.05-6.59l-1.1,4.61c3.03,0.59,4.99,2.44,5.98,4.81
			L-89.94-106.24z"/>
	</g>
</g>
</svg>
