<?xml version="1.0" encoding="utf-8"?>
<!-- Generator: Adobe Illustrator 23.0.1, SVG Export Plug-In . SVG Version: 6.00 Build 0)  -->
<svg version="1.1" id="Layer_1" xmlns="http://www.w3.org/2000/svg" xmlns:xlink="http://www.w3.org/1999/xlink" x="0px" y="0px"
	 viewBox="0 0 32 32" style="enable-background:new 0 0 32 32;" xml:space="preserve">
<style type="text/css">
	.st0{fill:#FFFFFF;}
</style>
<g>
	<path class="st0" d="M32,30.15c-1.03,0-2.06,0-3.09,0c-0.02-0.01-0.05-0.02-0.07-0.02c-1.35,0-2.7-0.01-4.06-0.01
		c-0.06,0-0.13-0.01-0.19-0.01c-2.06-0.01-4.12-0.02-6.18-0.03c-2.81-0.01-5.62-0.03-8.42-0.04c-1.96-0.01-3.91-0.01-5.87-0.01
		c-0.61,0-1.22-0.01-1.83-0.01c-0.1,0-0.14-0.02-0.15-0.13c-0.03-0.45-0.07-0.91-0.1-1.36c-0.11-1.46-0.22-2.92-0.33-4.37
		c-0.14-1.76-0.28-3.53-0.41-5.29c-0.12-1.62-0.24-3.23-0.37-4.85c-0.15-1.91-0.3-3.82-0.45-5.74C0.31,6.29,0.16,4.3,0,2.31
		c-0.01-0.12,0.01-0.16,0.15-0.16C0.8,2.16,1.45,2.16,2.1,2.16c2.2,0.01,4.4,0.01,6.6,0.02c1.1,0,2.2,0.01,3.31,0.01
		c2.09,0,4.18,0,6.28,0.01c0.98,0,1.96,0.01,2.93,0c0.11,0,0.16,0.02,0.2,0.14c0.97,3.53,1.94,7.05,2.9,10.58
		c0.04,0.14,0.1,0.17,0.23,0.17c1.65,0,3.31,0,4.96-0.01c0.11,0,0.17,0.02,0.18,0.15c0.08,0.6,0.16,1.21,0.25,1.81
		c0.19,1.42,0.39,2.85,0.58,4.27c0.21,1.51,0.42,3.01,0.63,4.52c0.21,1.53,0.42,3.06,0.63,4.59C31.85,29,31.92,29.57,32,30.15z
		 M16.73,27.05v0.01c1.32,0,2.64,0,3.96,0c0.79,0,1.59,0.02,2.38,0.02c1.77,0.01,3.54,0.01,5.31,0.01c0.11,0,0.14-0.02,0.13-0.14
		c-0.16-1.14-0.32-2.29-0.47-3.43c-0.18-1.34-0.37-2.67-0.55-4.01c-0.15-1.07-0.3-2.15-0.44-3.22c-0.02-0.16-0.09-0.19-0.23-0.19
		c-1.53,0.01-3.07,0-4.6,0.01c-0.12,0-0.17-0.03-0.21-0.15c-0.43-1.6-0.87-3.19-1.31-4.79c-0.53-1.94-1.07-3.87-1.6-5.81
		c-0.03-0.1-0.07-0.14-0.18-0.14c-0.37,0-0.73-0.01-1.1-0.01c-1.11,0-2.22,0-3.32-0.01c-2.09,0-4.17,0-6.26-0.01
		c-0.04,0-0.07,0-0.11,0C6.55,5.2,4.97,5.2,3.4,5.19c-0.1,0-0.13,0.03-0.12,0.13C3.33,5.83,3.37,6.35,3.4,6.86
		c0.18,2.31,0.36,4.61,0.53,6.92c0.16,2.08,0.32,4.17,0.48,6.25c0.17,2.28,0.35,4.55,0.53,6.83C4.95,26.97,4.98,27,5.09,27
		c0.47,0,0.94,0.01,1.4,0.01c2.08,0.01,4.16,0.02,6.24,0.02c1.29,0,2.58,0.01,3.87,0.01C16.64,27.05,16.68,27.05,16.73,27.05z"/>
	<path class="st0" d="M10.48,10.65c0.17,0.11,0.33,0.23,0.49,0.36c0.47,0.4,0.65,0.93,0.68,1.53c0.04,0.78-0.16,1.47-0.8,1.97
		C10.46,14.82,9.99,14.97,9.5,15c-1.31,0.05-2.62,0-3.92,0.02c-0.13,0-0.12-0.08-0.13-0.16c-0.04-0.56-0.08-1.12-0.12-1.68
		C5.24,11.89,5.15,10.6,5.06,9.3C5,8.41,4.94,7.51,4.87,6.62C4.86,6.52,4.89,6.5,4.99,6.5c1.21,0,2.42-0.01,3.62,0.01
		c0.85,0.02,1.61,0.29,2.14,1c0.46,0.61,0.62,1.31,0.47,2.06c-0.07,0.37-0.31,0.66-0.57,0.92C10.61,10.54,10.55,10.59,10.48,10.65z
		 M8.24,13.12c0.23,0,0.46,0,0.69,0c0.25-0.01,0.44-0.12,0.55-0.35c0.17-0.4,0-1.1-0.68-1.11c-0.46-0.01-0.91,0-1.37,0
		c-0.08,0-0.12,0.01-0.11,0.11c0.04,0.42,0.07,0.85,0.09,1.27c0.01,0.08,0.04,0.1,0.11,0.09C7.77,13.12,8,13.12,8.24,13.12z
		 M7.89,8.38c-0.25,0-0.46,0-0.66,0c-0.1,0-0.14,0.02-0.13,0.13c0.03,0.38,0.06,0.77,0.08,1.15c0.01,0.1,0.06,0.11,0.14,0.11
		c0.4,0,0.79,0,1.19,0c0.04,0,0.07,0,0.11-0.01C8.98,9.71,9.18,9.5,9.2,9.16c0-0.36-0.21-0.66-0.53-0.74
		C8.4,8.35,8.12,8.39,7.89,8.38z"/>
	<path class="st0" d="M11.23,21.32c0.05,0.04,0.1,0.07,0.15,0.1c0.7,0.45,1.01,1.09,1.02,1.91c0.02,1.38-0.84,2.25-2.19,2.33
		c-1.29,0.08-2.58,0.01-3.87,0.03c-0.14,0-0.14-0.08-0.14-0.17c-0.05-0.73-0.1-1.45-0.15-2.18c-0.09-1.29-0.18-2.58-0.27-3.88
		c-0.05-0.72-0.1-1.44-0.15-2.16c-0.01-0.1,0-0.14,0.12-0.14c1.2,0.01,2.4-0.01,3.61,0.01c0.81,0.02,1.55,0.26,2.08,0.9
		c0.55,0.66,0.74,1.44,0.51,2.28C11.84,20.76,11.54,21.05,11.23,21.32z M8.98,23.79c0.23,0,0.46,0,0.69,0
		c0.19,0,0.36-0.06,0.48-0.23c0.18-0.26,0.18-0.54,0.06-0.82c-0.12-0.27-0.34-0.41-0.63-0.41c-0.47-0.01-0.93,0-1.4-0.01
		c-0.09,0-0.11,0.03-0.1,0.11c0.03,0.42,0.07,0.84,0.09,1.25c0.01,0.09,0.04,0.11,0.12,0.1C8.51,23.78,8.74,23.79,8.98,23.79z
		 M8.64,19.06c-0.25,0-0.45,0.01-0.65,0c-0.12-0.01-0.15,0.03-0.14,0.15c0.03,0.37,0.06,0.74,0.07,1.12
		c0.01,0.1,0.05,0.11,0.13,0.11c0.4,0,0.81,0,1.21,0c0.02,0,0.05,0,0.07-0.01c0.38-0.05,0.58-0.25,0.6-0.6s-0.21-0.66-0.54-0.74
		C9.13,19.02,8.86,19.07,8.64,19.06z"/>
	<path class="st0" d="M16.3,17.17c0.91,0,1.83,0,2.74,0c0.12,0,0.16,0.03,0.16,0.15c0.03,0.52,0.06,1.04,0.11,1.56
		c0.01,0.15-0.02,0.18-0.17,0.18c-1.11-0.01-2.23,0-3.34-0.01c-0.14,0-0.18,0.04-0.16,0.17c0.03,0.36,0.06,0.72,0.07,1.08
		c0.01,0.13,0.06,0.16,0.18,0.16c0.94-0.01,1.87,0,2.81-0.01c0.15,0,0.19,0.05,0.2,0.19c0.03,0.52,0.07,1.04,0.11,1.56
		c0.01,0.13-0.04,0.13-0.14,0.13c-0.95,0-1.9,0-2.84,0c-0.13,0-0.18,0.02-0.16,0.17c0.04,0.39,0.07,0.78,0.08,1.17
		c0.01,0.12,0.04,0.16,0.16,0.16c1.12-0.01,2.24,0,3.36-0.01c0.14,0,0.19,0.03,0.19,0.18c0.02,0.52,0.06,1.04,0.11,1.56
		c0.01,0.12-0.03,0.14-0.13,0.14c-1.84,0-3.67,0-5.51,0c-0.11,0-0.14-0.04-0.14-0.14c-0.06-0.95-0.13-1.9-0.2-2.85
		c-0.09-1.29-0.18-2.59-0.27-3.88c-0.04-0.51-0.07-1.03-0.11-1.54c-0.01-0.13,0.07-0.11,0.14-0.11
		C14.47,17.17,15.39,17.17,16.3,17.17z"/>
	<path class="st0" d="M20.2,15.01c-0.72,0-1.4,0-2.09,0c-0.09,0-0.12-0.05-0.15-0.12c-0.13-0.34-0.26-0.67-0.38-1.01
		c-0.04-0.1-0.08-0.15-0.2-0.14c-0.78,0.01-1.55,0.01-2.33,0c-0.11,0-0.15,0.03-0.18,0.14c-0.08,0.33-0.17,0.66-0.25,1
		c-0.02,0.1-0.05,0.14-0.16,0.14c-0.65,0-1.29-0.01-1.94,0c-0.17,0-0.11-0.08-0.09-0.17c0.57-1.93,1.13-3.85,1.7-5.78
		c0.24-0.82,0.48-1.63,0.72-2.45c0.03-0.1,0.07-0.13,0.17-0.13c0.45,0.01,0.9,0.01,1.35,0c0.13,0,0.17,0.06,0.21,0.16
		c0.93,2.15,1.86,4.3,2.8,6.45C19.65,13.73,19.92,14.36,20.2,15.01z M15.98,9.75c-0.2,0.74-0.38,1.43-0.57,2.13
		c-0.03,0.11,0,0.12,0.09,0.12c0.4,0,0.8,0,1.21,0c0.11,0,0.14-0.02,0.09-0.13c-0.07-0.17-0.14-0.35-0.21-0.53
		C16.4,10.82,16.2,10.31,15.98,9.75z"/>
	<path class="st0" d="M24.07,25.68c-0.88,0-1.75,0-2.63,0c-0.12,0-0.18-0.01-0.19-0.16c-0.1-1.49-0.21-2.99-0.31-4.48
		c-0.09-1.24-0.17-2.48-0.26-3.72c-0.01-0.12,0.01-0.16,0.14-0.16c0.6,0.01,1.2,0.01,1.8,0c0.12,0,0.16,0.03,0.17,0.15
		c0.05,0.74,0.1,1.48,0.15,2.21c0.1,1.39,0.19,2.77,0.28,4.16c0.01,0.13,0.08,0.12,0.16,0.12c1.08,0,2.16,0,3.24,0
		c0.16,0,0.19,0.04,0.2,0.19c0.02,0.48,0.07,0.97,0.1,1.45c0.02,0.23,0.01,0.23-0.21,0.23C25.82,25.68,24.95,25.68,24.07,25.68z"/>
</g>
</svg>
