<?xml version="1.0" encoding="utf-8"?>
<!-- Generator: Adobe Illustrator 23.0.1, SVG Export Plug-In . SVG Version: 6.00 Build 0)  -->
<svg version="1.1" id="Layer_1" xmlns="http://www.w3.org/2000/svg" xmlns:xlink="http://www.w3.org/1999/xlink" x="0px" y="0px"
	 viewBox="0 0 32 32" style="enable-background:new 0 0 32 32;" xml:space="preserve">
<style type="text/css">
	.st0{fill:#1B1B1B;}
</style>
<title>Blue</title>
<g>
	<path class="st0" d="M31,29.15c-1.03,0-2.06,0-3.09,0c-0.02-0.01-0.05-0.02-0.07-0.02c-1.35,0-2.7-0.01-4.06-0.01
		c-0.06,0-0.13-0.01-0.19-0.01c-2.06-0.01-4.12-0.02-6.18-0.03c-2.81-0.01-5.62-0.03-8.42-0.04c-1.96-0.01-3.91-0.01-5.87-0.01
		c-0.61,0-1.22-0.01-1.83-0.01c-0.1,0-0.14-0.02-0.15-0.13c-0.03-0.45-0.07-0.91-0.1-1.36c-0.11-1.46-0.22-2.92-0.33-4.37
		c-0.14-1.76-0.28-3.53-0.41-5.29c-0.12-1.62-0.24-3.23-0.37-4.85c-0.15-1.91-0.3-3.82-0.45-5.74C-0.69,5.29-0.84,3.3-1,1.31
		c-0.01-0.12,0.01-0.16,0.15-0.16c0.65,0.01,1.3,0.01,1.96,0.01C3.3,1.17,5.5,1.17,7.7,1.18c1.1,0,2.2,0.01,3.31,0.01
		c2.09,0,4.18,0,6.28,0.01c0.98,0,1.96,0.01,2.93,0c0.11,0,0.16,0.02,0.2,0.14c0.97,3.53,1.94,7.05,2.9,10.58
		c0.04,0.14,0.1,0.17,0.23,0.17c1.65,0,3.31,0,4.96-0.01c0.11,0,0.17,0.02,0.18,0.15c0.08,0.6,0.16,1.21,0.25,1.81
		c0.19,1.42,0.39,2.85,0.58,4.27c0.21,1.51,0.42,3.01,0.63,4.52c0.21,1.53,0.42,3.06,0.63,4.59C30.85,28,30.92,28.57,31,29.15z
		 M15.73,26.05c0,0,0,0.01,0,0.01c1.32,0,2.64,0,3.96,0c0.79,0,1.59,0.02,2.38,0.02c1.77,0.01,3.54,0.01,5.31,0.01
		c0.11,0,0.14-0.02,0.13-0.14c-0.16-1.14-0.32-2.29-0.47-3.43c-0.18-1.34-0.37-2.67-0.55-4.01c-0.15-1.07-0.3-2.15-0.44-3.22
		c-0.02-0.16-0.09-0.19-0.23-0.19c-1.53,0.01-3.07,0-4.6,0.01c-0.12,0-0.17-0.03-0.21-0.15c-0.43-1.6-0.87-3.19-1.31-4.79
		c-0.53-1.94-1.07-3.87-1.6-5.81c-0.03-0.1-0.07-0.14-0.18-0.14c-0.37,0-0.73-0.01-1.1-0.01c-1.11,0-2.22,0-3.32-0.01
		c-2.09,0-4.17,0-6.26-0.01c-0.04,0-0.07,0-0.11,0C5.55,4.2,3.97,4.2,2.4,4.19c-0.1,0-0.13,0.03-0.12,0.13
		C2.33,4.83,2.37,5.35,2.4,5.86c0.18,2.31,0.36,4.61,0.53,6.92c0.16,2.08,0.32,4.17,0.48,6.25c0.17,2.28,0.35,4.55,0.53,6.83
		C3.95,25.97,3.98,26,4.09,26c0.47,0,0.94,0.01,1.4,0.01c2.08,0.01,4.16,0.02,6.24,0.02c1.29,0,2.58,0.01,3.87,0.01
		C15.64,26.05,15.69,26.05,15.73,26.05z"/>
	<path class="st0" d="M9.48,9.65c0.17,0.11,0.33,0.23,0.49,0.36c0.47,0.4,0.65,0.93,0.68,1.53c0.04,0.78-0.16,1.47-0.8,1.97
		c-0.39,0.31-0.86,0.46-1.35,0.49C7.19,14.05,5.88,14,4.58,14.02c-0.13,0-0.12-0.08-0.13-0.16c-0.04-0.56-0.08-1.12-0.12-1.68
		C4.24,10.88,4.15,9.59,4.06,8.3C4,7.41,3.94,6.51,3.87,5.62C3.86,5.52,3.89,5.5,3.99,5.5c1.21,0,2.42-0.01,3.62,0.01
		c0.85,0.02,1.61,0.29,2.14,1c0.46,0.61,0.62,1.31,0.47,2.06c-0.07,0.37-0.31,0.66-0.57,0.92C9.61,9.54,9.55,9.59,9.48,9.65z
		 M7.24,12.12c0.23,0,0.46,0,0.69,0c0.25-0.01,0.44-0.12,0.55-0.35c0.17-0.4,0-1.1-0.68-1.11c-0.46-0.01-0.91,0-1.37,0
		c-0.08,0-0.12,0.01-0.11,0.11c0.04,0.42,0.07,0.85,0.09,1.27c0.01,0.08,0.04,0.1,0.11,0.09C6.77,12.12,7,12.12,7.24,12.12z
		 M6.89,7.38c-0.25,0-0.46,0-0.66,0c-0.1,0-0.14,0.02-0.13,0.13c0.03,0.38,0.06,0.77,0.08,1.15c0.01,0.1,0.06,0.11,0.14,0.11
		c0.4,0,0.79,0,1.19,0c0.04,0,0.07,0,0.11-0.01c0.36-0.05,0.56-0.26,0.58-0.6C8.2,7.8,7.99,7.5,7.67,7.42
		C7.4,7.35,7.12,7.39,6.89,7.38z"/>
	<path class="st0" d="M10.23,20.32c0.05,0.04,0.1,0.07,0.15,0.1c0.7,0.45,1.01,1.09,1.02,1.91c0.02,1.38-0.84,2.25-2.19,2.33
		c-1.29,0.08-2.58,0.01-3.87,0.03c-0.14,0-0.14-0.08-0.14-0.17c-0.05-0.73-0.1-1.45-0.15-2.18c-0.09-1.29-0.18-2.58-0.27-3.88
		c-0.05-0.72-0.1-1.44-0.15-2.16c-0.01-0.1,0-0.14,0.12-0.14c1.2,0.01,2.4-0.01,3.61,0.01c0.81,0.02,1.55,0.26,2.08,0.9
		c0.55,0.66,0.74,1.44,0.51,2.28C10.84,19.76,10.54,20.05,10.23,20.32z M7.98,22.79c0.23,0,0.46,0,0.69,0
		c0.19,0,0.36-0.06,0.48-0.23c0.18-0.26,0.18-0.54,0.06-0.82c-0.12-0.27-0.34-0.41-0.63-0.41c-0.47-0.01-0.93,0-1.4-0.01
		c-0.09,0-0.11,0.03-0.1,0.11c0.03,0.42,0.07,0.84,0.09,1.25c0.01,0.09,0.04,0.11,0.12,0.1C7.51,22.78,7.74,22.79,7.98,22.79z
		 M7.64,18.06c-0.25,0-0.45,0.01-0.65,0c-0.12-0.01-0.15,0.03-0.14,0.15c0.03,0.37,0.06,0.74,0.07,1.12
		c0.01,0.1,0.05,0.11,0.13,0.11c0.4,0,0.81,0,1.21,0c0.02,0,0.05,0,0.07-0.01c0.38-0.05,0.58-0.25,0.6-0.6
		c0.02-0.35-0.21-0.66-0.54-0.74C8.13,18.02,7.86,18.07,7.64,18.06z"/>
	<path class="st0" d="M15.3,16.17c0.91,0,1.83,0,2.74,0c0.12,0,0.16,0.03,0.16,0.15c0.03,0.52,0.06,1.04,0.11,1.56
		c0.01,0.15-0.02,0.18-0.17,0.18c-1.11-0.01-2.23,0-3.34-0.01c-0.14,0-0.18,0.04-0.16,0.17c0.03,0.36,0.06,0.72,0.07,1.08
		c0.01,0.13,0.06,0.16,0.18,0.16c0.94-0.01,1.87,0,2.81-0.01c0.15,0,0.19,0.05,0.2,0.19c0.03,0.52,0.07,1.04,0.11,1.56
		c0.01,0.13-0.04,0.13-0.14,0.13c-0.95,0-1.9,0-2.84,0c-0.13,0-0.18,0.02-0.16,0.17c0.04,0.39,0.07,0.78,0.08,1.17
		c0.01,0.12,0.04,0.16,0.16,0.16c1.12-0.01,2.24,0,3.36-0.01c0.14,0,0.19,0.03,0.19,0.18c0.02,0.52,0.06,1.04,0.11,1.56
		c0.01,0.12-0.03,0.14-0.13,0.14c-1.84,0-3.67,0-5.51,0c-0.11,0-0.14-0.04-0.14-0.14c-0.06-0.95-0.13-1.9-0.2-2.85
		c-0.09-1.29-0.18-2.59-0.27-3.88c-0.04-0.51-0.07-1.03-0.11-1.54c-0.01-0.13,0.07-0.11,0.14-0.11
		C13.47,16.17,14.39,16.17,15.3,16.17z"/>
	<path class="st0" d="M19.2,14.01c-0.72,0-1.4,0-2.09,0c-0.09,0-0.12-0.05-0.15-0.12c-0.13-0.34-0.26-0.67-0.38-1.01
		c-0.04-0.1-0.08-0.15-0.2-0.14c-0.78,0.01-1.55,0.01-2.33,0c-0.11,0-0.15,0.03-0.18,0.14c-0.08,0.33-0.17,0.66-0.25,1
		c-0.02,0.1-0.05,0.14-0.16,0.14c-0.65,0-1.29-0.01-1.94,0c-0.17,0-0.11-0.08-0.09-0.17c0.57-1.93,1.13-3.85,1.7-5.78
		c0.24-0.82,0.48-1.63,0.72-2.45c0.03-0.1,0.07-0.13,0.17-0.13c0.45,0.01,0.9,0.01,1.35,0c0.13,0,0.17,0.06,0.21,0.16
		c0.93,2.15,1.86,4.3,2.8,6.45C18.65,12.73,18.92,13.36,19.2,14.01z M14.98,8.75c-0.2,0.74-0.38,1.43-0.57,2.13
		c-0.03,0.11,0,0.12,0.09,0.12c0.4,0,0.8,0,1.21,0c0.11,0,0.14-0.02,0.09-0.13c-0.07-0.17-0.14-0.35-0.21-0.53
		C15.4,9.82,15.2,9.31,14.98,8.75z"/>
	<path class="st0" d="M23.07,24.68c-0.88,0-1.75,0-2.63,0c-0.12,0-0.18-0.01-0.19-0.16c-0.1-1.49-0.21-2.99-0.31-4.48
		c-0.09-1.24-0.17-2.48-0.26-3.72c-0.01-0.12,0.01-0.16,0.14-0.16c0.6,0.01,1.2,0.01,1.8,0c0.12,0,0.16,0.03,0.17,0.15
		c0.05,0.74,0.1,1.48,0.15,2.21c0.1,1.39,0.19,2.77,0.28,4.16c0.01,0.13,0.08,0.12,0.16,0.12c1.08,0,2.16,0,3.24,0
		c0.16,0,0.19,0.04,0.2,0.19c0.02,0.48,0.07,0.97,0.1,1.45c0.02,0.23,0.01,0.23-0.21,0.23C24.82,24.68,23.95,24.68,23.07,24.68z"/>
</g>
</svg>
