<?xml version="1.0" encoding="utf-8"?>
<!-- Generator: Adobe Illustrator 23.0.1, SVG Export Plug-In . SVG Version: 6.00 Build 0)  -->
<svg version="1.1" id="Layer_1" xmlns="http://www.w3.org/2000/svg" xmlns:xlink="http://www.w3.org/1999/xlink" x="0px" y="0px"
	 viewBox="0 0 100 40" style="enable-background:new 0 0 100 40;" xml:space="preserve">
<style type="text/css">
	.st0{fill-rule:evenodd;clip-rule:evenodd;fill:#006940;}
	.st1{fill-rule:evenodd;clip-rule:evenodd;fill:#ED1B2E;}
	.st2{fill-rule:evenodd;clip-rule:evenodd;fill:#7DC242;}
	.st3{fill-rule:evenodd;clip-rule:evenodd;fill:#FFFFFF;}
</style>
<path class="st0" d="M59.49,5.95c1.59,0,2.85-1.34,2.85-2.93c0-1.68-1.26-3.02-2.85-3.02c-1.59,0-2.85,1.34-2.85,3.02
	C56.63,4.61,57.9,5.95,59.49,5.95"/>
<path class="st1" d="M13.92,6.28c4.77,0.17,8.79,4.1,8.79,8.79l-0.09,6.37c0,1.42-2.09,2.93-3.09,3.01
	c-1.84,0.08-3.77,0.25-5.61,0.17v-6.28c1.51,0,2.84-1.34,2.84-2.93c0-1.51-1.34-2.77-2.84-2.77V6.28z M9.98,23.71
	c-2.85-1.26-5.36-5.02-5.28-8.46c0-5.03,4.02-9.05,8.96-8.97h0.25v6.36h-0.09c-1.51,0-2.76,1.26-2.76,2.85
	c0,1.59,1.34,2.85,2.85,2.85v6.28C12.58,24.46,11.15,24.21,9.98,23.71"/>
<path class="st2" d="M15.26,8.21c0,0.42,1.85,0.5,2.43,0.5c2.68-0.16,8.46-2.26,6.36-7.2c0-0.09-0.25,0.58-1.76,1
	C19.61,3.27,15.34,3.69,15.26,8.21"/>
<path class="st0" d="M90.23,8.8c0.08-1.51,2.02-2.34,3.02-2.18c1.17-0.25,2.93,0.92,3.01,2.35v7.88c-0.16,3.93-3.68,7.2-7.71,7.7
	l-8.46-0.08c-1.18,0-3.27-1-4.28-2.18c-0.92,1.09-2.68,2.18-4.69,2.26l-23.87-0.08c-1.59,0-3.52-1.09-4.36-2.43
	c-0.84,1.51-2.76,2.51-4.78,2.51H27.15c-3.52-0.08-3.85-5.52-0.08-6.11h9.8c1.26-0.25,2.6-0.33,2.94-2.35l0.09-7.04
	c0.84-3.35,5.28-3.43,5.95,0.09l0.08,6.95c0,1.25,0.76,2.1,2.76,2.43l20.86-0.17c1.25,0.08,3.43-0.84,3.43-2.43V9.13
	c0.17-3.35,6.03-3.35,6.11,0l0.09,7.37c0,0.92,1.25,1.84,2.18,1.93h5.36c2.35,0.08,3.35-1.09,3.44-3.27L90.23,8.8z"/>
<path class="st0" d="M84.28,32.34c1.59,0,2.84-1.34,2.84-2.93c0-1.68-1.26-3.02-2.84-3.02c-1.59,0-2.85,1.34-2.85,3.02
	C81.44,31,82.69,32.34,84.28,32.34"/>
<path class="st3" d="M23.63,2.68c0.5-0.84-0.42,1.09-1.42,1.76c-0.67,0.42-1.18,0.67-2.01,0.84c-3.52,0.75-5.36,4.19-3.94,2.09
	c0.93-1.42,2.94-1.92,4.69-2.51C22.79,4.27,22.88,3.77,23.63,2.68"/>
<path class="st0" d="M33.68,38.53v-8.29c0-1.42-2.18-1.34-2.18-0.08v2.6c0,0.33-0.42,0.17-0.5,0.17c-0.34-0.09-0.59-0.17-0.93-0.17
	v2.34c0.59,0,1.17,0.67,1.17,1.25c-0.08,0.67-0.67,1.09-1.17,1.09v2.43c0.42-0.08,0.84-0.17,1.34-0.42c0.17-0.08,0.08-0.08,0.25,0
	C32.59,40.38,33.85,39.62,33.68,38.53 M30.08,32.76c-4.77-0.25-4.52,7.62,0,7.12v-2.43c-0.5,0-1.09-0.42-1.09-1.09
	c-0.08-0.58,0.5-1.25,1.09-1.25V32.76z"/>
<path class="st0" d="M18.6,33.51c0-0.42-1.17-1.34-2.01-0.5c-0.51-0.17-1.01-0.25-1.42-0.33v2.51c0.59,0,1.17,0.5,1.17,1.17
	s-0.58,1.26-1.17,1.26v2.18c0.25,0,0.59-0.09,0.92-0.09c0.09-0.08,0.34-0.33,0.59-0.17c0.17,0.17,0.59,0.59,1.17,0.42
	c0.25-0.09,0.76-0.34,0.76-0.84V33.51z M15.17,32.67c-4.85-0.34-4.94,7.37,0,7.12v-2.18c-0.67,0-1.17-0.59-1.17-1.26
	s0.5-1.17,1.17-1.17V32.67z"/>
<path class="st0" d="M4.7,30.49v8.54c0,1.34,2.09,1.18,2.09,0.09v-2.85c0,0,0.25,0.08,0.76,0.17c6.28,0.67,5.19-8.71-0.67-6.79
	c-0.17,0.09-0.08-0.08-0.25-0.17C5.96,28.9,4.7,29.4,4.7,30.49"/>
<path class="st0" d="M19.36,38.95v-5.28c-0.08-0.42,0.25-0.75,0.58-0.92c0.43-0.17,0.92-0.08,1.17,0.25h0.17
	c1.01-0.42,4.77-0.84,4.77,2.93v2.93c0,1.26-2.1,1.42-2.1,0.08v-3.27c0-0.5-0.75-0.92-1.34-0.84c-0.67,0.08-1.09,0.25-1.09,0.84
	v3.02C21.53,40.38,19.36,40.13,19.36,38.95"/>
<path class="st3" d="M8.3,31.67c0.59,0,1.09,0.58,1.09,1.17c0,0.67-0.5,1.18-1.09,1.18c-0.67,0-1.09-0.5-1.09-1.18
	C7.21,32.25,7.63,31.67,8.3,31.67"/>
<path class="st1" d="M37.7,32.76c1.84,0.08,3.43,1.59,3.43,3.43v2.52c0,0.42-0.75,1-1.09,1.09c-0.75,0-1.59,0.08-2.34,0v-2.35
	c0.59,0,1.09-0.5,1.09-1.09c0-0.67-0.5-1.09-1.09-1.17V32.76z M36.11,39.54c-1.17-0.42-2.1-1.93-2.1-3.27
	c0.09-2.01,1.6-3.6,3.52-3.52h0.17v2.43h-0.08c-0.59,0-1.09,0.59-1.09,1.17c0,0.59,0.59,1.09,1.17,1.09v2.35
	C37.12,39.79,36.61,39.71,36.11,39.54"/>
<path class="st2" d="M38.21,33.51c0,0.17,0.75,0.17,0.92,0.17c1.09-0.08,3.35-0.92,2.51-2.85c0,0-0.08,0.25-0.67,0.42
	C39.88,31.5,38.29,31.67,38.21,33.51"/>
<path class="st3" d="M41.47,31.33c0.25-0.42-0.34,0.84-1.17,0.92c0,0-0.08,0.09-0.17,0.09c-1.34,0.25-2.1,1.68-1.51,0.84
	c0.34-0.59,1.18-0.84,1.85-1.01C41.14,31.91,41.3,31.67,41.47,31.33"/>
</svg>
