<?xml version="1.0" encoding="utf-8"?>
<!-- Generator: Adobe Illustrator 23.0.1, SVG Export Plug-In . SVG Version: 6.00 Build 0)  -->
<svg version="1.1" id="Layer_1" xmlns="http://www.w3.org/2000/svg" xmlns:xlink="http://www.w3.org/1999/xlink" x="0px" y="0px"
	 viewBox="0 0 80 40" style="enable-background:new 0 0 80 40;" xml:space="preserve">
<style type="text/css">
	.st0{fill:#1B5EAC;}
	.st1{fill:#FFFFFF;}
</style>
<g>
	<g>
		<rect x="40.42" y="1" class="st0" width="18.41" height="18.41"/>
		<path class="st1" d="M45.08,4.02v7.24c0,3.84,1.91,5.26,4.42,5.26c2.66,0,4.66-1.53,4.66-5.31V4.02h-1.61v7.3
			c0,2.71-1.2,3.9-3,3.9c-1.64,0-2.87-1.17-2.87-3.9v-7.3H45.08L45.08,4.02z"/>
		<rect x="59.97" y="1" class="st0" width="18.41" height="18.41"/>
		<path class="st1" d="M66.05,16.35v-5.26c0-2.03-0.02-3.52-0.1-5.08l0.06-0.02c0.61,1.32,1.43,2.73,2.29,4.11l3.9,6.25h1.61V4.06
			h-1.49v5.16c0,1.91,0.04,3.4,0.19,5.03l-0.08,0.02c-0.57-1.28-1.3-2.56-2.18-4.01l-3.92-6.23h-1.76v12.29h1.49V16.35z"/>
		<rect x="59.97" y="20.55" class="st0" width="18.41" height="18.41"/>
		<path class="st1" d="M71.78,27.24c0-1.64-1.15-2.43-2.89-2.43c-0.69,0-1.22,0.06-1.49,0.13v4.78c0.34,0.08,0.8,0.13,1.32,0.13
			C70.62,29.86,71.78,28.89,71.78,27.24 M73.37,27.07c0,1.11-0.34,1.99-0.96,2.62c-0.84,0.88-2.2,1.34-3.75,1.34
			c-0.48,0-0.92-0.02-1.28-0.1v4.95h-1.59V23.73c0.78-0.15,1.76-0.25,3.04-0.25c1.57,0,2.73,0.36,3.44,1.03
			C72.97,25.08,73.37,25.98,73.37,27.07z"/>
		<rect x="40.4" y="20.57" class="st0" width="18.41" height="18.41"/>
		<path class="st1" d="M53.43,29.46c0.02-2.94-1.64-4.74-4.99-4.74c-0.82,0-1.45,0.06-1.87,0.17v9.73c0.4,0.06,0.99,0.06,1.61,0.06
			C51.58,34.7,53.43,32.79,53.43,29.46 M55.1,29.42c0,2.01-0.63,3.65-1.76,4.78c-1.17,1.15-3.06,1.76-5.45,1.76
			c-1.15,0-2.08-0.04-2.89-0.15v-12.1c0.99-0.15,2.14-0.25,3.4-0.25c2.29,0,3.9,0.5,4.99,1.51C54.45,25.98,55.1,27.42,55.1,29.42z"
			/>
	</g>
	<g>
		<rect x="1.42" y="1" class="st0" width="38" height="38"/>
		<path class="st1" d="M30.09,28.07c-0.86,0.23-1.8,0.31-2.64,0.61c1.43-1.24,1.36-3.12,2.31-4.59c0.31-0.42,0.57-0.84,0.9-1.24
			c-0.59,1.17-0.34,2.68-1.01,3.82c-0.25,0.44-0.63,0.88-1.03,1.24c0.13,0,0.25-0.13,0.36-0.19c1.09-1.09,2.52-1.38,3.69-2.26
			c0.46-0.38,0.9-0.86,1.11-1.41C33.57,25.85,31.76,27.53,30.09,28.07"/>
		<path class="st1" d="M34.01,20.8c-0.52,0.75-1.17,1.47-1.66,2.22c0.06-0.61,0.13-1.36-0.1-1.93c-0.42-1.24-0.78-2.5-0.88-3.86
			l0.02-0.52c0.31,1.38,1.68,2.35,1.59,3.9c0.02,0.38-0.08,0.69-0.15,1.03l0.02,0.02l0.06-0.06c0.21-0.75,0.29-1.57,0.61-2.29
			c0.44-1.03,1.01-2.08,0.78-3.31C34.95,17.46,34.74,19.41,34.01,20.8"/>
		<path class="st1" d="M33.17,12.91c0.9,1.22,1.09,3.15,0.44,4.55c-0.25,0.59-0.42,1.22-0.5,1.87c-0.04-0.1-0.06-0.27-0.1-0.4
			c-0.36-1.36-1.66-2.33-2.18-3.63c-0.17-0.42-0.31-0.86-0.4-1.32c0.57,1.05,1.97,1.59,2.35,2.75c0.15,0.29,0.15,0.65,0.25,0.96
			c0.02,0,0.04-0.02,0.04-0.04c-0.17-1.2-0.13-2.43,0.04-3.61c0-0.63-0.06-1.26-0.42-1.74C32.9,12.45,33,12.7,33.17,12.91"/>
		<path class="st1" d="M32.52,12.66c0.23,1.07-0.1,2.1,0.1,3.17l0,0c-0.59-1.13-1.8-1.68-2.66-2.58c-0.48-0.55-0.71-1.2-0.82-1.91
			c0.48,1.17,1.78,1.43,2.54,2.41c0.25,0.23,0.34,0.55,0.5,0.8l0.02-0.02c-0.44-0.92-0.59-1.95-0.88-2.94
			c-0.15-0.42-0.46-0.84-0.86-1.11C31.47,10.71,32.33,11.74,32.52,12.66"/>
		<path class="st1" d="M29.9,10.23c0.73,0.67,1.07,1.53,1.3,2.41l0.13,0.29c-1.07-0.78-2.06-1.82-2.75-2.92l-0.84-0.86
			C28.47,9.47,29.27,9.66,29.9,10.23"/>
		<path class="st1" d="M12.87,9.3c-0.75,0.65-1.26,1.49-1.8,2.24c-0.5,0.61-1.13,1.03-1.7,1.55c0.29-0.63,0.31-1.38,0.73-1.95
			C10.73,10.08,11.86,9.7,12.87,9.3"/>
		<path class="st1" d="M8.8,11.57c0.36-0.44,0.82-0.75,1.34-0.9c-1.01,0.69-0.94,1.93-1.26,2.96c-0.1,0.38-0.27,0.73-0.36,1.11
			l0.02,0.02c0.17-0.44,0.46-0.86,0.82-1.22c0.71-0.65,1.76-1.07,2.12-2.03c-0.02,1.34-1.15,2.41-2.22,3.17
			c-0.44,0.4-0.88,0.84-1.11,1.34c-0.02-0.34,0.04-0.69,0.02-1.05C8.07,13.79,7.96,12.45,8.8,11.57"/>
		<path class="st1" d="M6.77,15.62c-0.02-1.2,0.46-2.18,1.17-3.06c0.02,0,0.04-0.02,0.06-0.02c-0.78,1.17-0.13,2.64-0.17,3.98
			l-0.1,1.36c0.02,0,0.02,0.04,0.04,0.04c0.04-0.15,0.06-0.31,0.08-0.46c0.19-1.09,1.13-1.89,1.97-2.64
			c0.17-0.19,0.34-0.4,0.42-0.63c-0.06,0.55-0.23,1.09-0.46,1.61c-0.65,1.26-1.85,2.31-2.08,3.75C7.63,18.13,6.68,17.08,6.77,15.62"
			/>
		<path class="st1" d="M6.2,17.32c0.08-0.38,0.15-0.75,0.31-1.11c-0.31,1.57,0.75,2.73,1.11,4.09c0.15,0.5,0.19,1.07,0.4,1.55
			c0.02,0,0.04,0,0.04-0.02c-0.52-1.47,0.23-2.81,0.99-3.94c0.19-0.31,0.29-0.65,0.38-1.01c0.08,0.65-0.08,1.43-0.19,2.1
			c-0.19,0.88-0.46,1.7-0.69,2.54c-0.15,0.52-0.13,1.13-0.04,1.68l-0.08-0.06c-0.55-1.03-1.66-1.8-1.97-2.94
			C6.18,19.31,6.01,18.28,6.2,17.32"/>
		<path class="st1" d="M6.14,20.4c0.13,1.68,1.93,2.56,2.77,3.94c0.19,0.29,0.38,0.59,0.63,0.84c-0.04-0.17-0.21-0.34-0.27-0.5
			c-0.29-0.59-0.4-1.28-0.34-1.97c0.08-0.86,0.44-1.66,0.29-2.56c0.73,1.59,0.5,3.57,0.92,5.28c0.1,0.38,0.31,0.71,0.46,1.07
			c-1.51-1.03-3.57-2.01-4.24-3.88C6.12,21.95,6.07,21.15,6.14,20.4"/>
		<path class="st1" d="M7.04,24.26c0.84,1.91,2.96,2.06,4.36,3.23c0.25,0.23,0.52,0.42,0.82,0.57l0.02-0.02
			c-0.31-0.29-0.69-0.63-0.92-1.01c-0.82-1.15-0.55-2.77-1.15-4.01c0.57,0.67,1.07,1.36,1.41,2.14c0.5,1.24,0.69,2.66,1.87,3.59
			c-1.26-0.42-2.75-0.29-3.86-1.07C8.36,26.92,7.27,25.64,7.04,24.26"/>
		<path class="st1" d="M9.2,27.8c1.34,1.53,3.54,1.03,5.35,1.43c0.25,0.04,0.48,0.15,0.75,0.1c-0.21-0.15-0.5-0.13-0.73-0.25
			c-1.41-0.5-1.61-2.01-2.39-3.04c0.99,0.65,1.8,1.53,2.71,2.37c0.65,0.57,1.43,0.84,2.24,1.01c-0.19,0.06-0.46,0.04-0.67,0.1
			c-1.47,0.36-3.12,0.96-4.68,0.42C10.77,29.6,9.72,28.81,9.2,27.8"/>
		<path class="st1" d="M27.51,31.39c-1.51,0.57-3.1-0.02-4.3-0.92c-0.48-0.31-0.9-0.75-1.53-0.71c-0.23,0-0.44,0-0.63,0.06
			c1.15,0.55,2.22,1.28,3.21,2.22c-0.17,0.19-0.38,0.36-0.59,0.52c-0.94-1.03-1.99-1.99-3.17-2.56c-0.23,0.02-0.44,0.17-0.65,0.27
			c-0.94,0.61-1.89,1.38-2.6,2.33l-0.61-0.5c0.96-0.99,2.06-1.74,3.23-2.29c-1.15-0.36-1.91,0.61-2.79,1.09
			c-1.03,0.71-2.5,1.05-3.73,0.57c-0.67-0.25-1.3-0.63-1.78-1.22c0.96,0.67,2.41,0.73,3.52,0.29c1.49-0.65,3.02-1.47,4.8-1.07
			c0.27,0,0.55,0.29,0.82,0.04c1.32-0.34,2.83-0.1,3.98,0.5l1.17,0.46c1.09,0.4,2.52,0.29,3.44-0.38
			C28.85,30.7,28.2,31.14,27.51,31.39"/>
		<path class="st1" d="M29.14,29.81c-1.7,0.65-3.42-0.15-5.05-0.42l-0.31-0.04l0,0c0.78-0.17,1.53-0.42,2.16-0.96
			c0.92-0.88,1.74-1.78,2.75-2.47c-0.75,0.96-0.84,2.35-2.08,2.98c-0.31,0.21-0.69,0.23-1.03,0.4c0.46,0,0.88-0.15,1.32-0.19
			c1.68-0.27,3.59,0,4.76-1.43C31.22,28.62,30.13,29.46,29.14,29.81"/>
		<path class="st1" d="M32.25,25.01c-0.67,0.44-1.36,0.86-2.01,1.34v-0.06c0.99-1.66,0.5-3.92,1.11-5.73l0.23-0.61
			c-0.13,1.13,0.36,2.1,0.34,3.23c-0.04,0.69-0.25,1.3-0.61,1.85h0.06c0.48-0.63,0.86-1.32,1.43-1.93c0.88-0.86,1.78-1.72,1.89-2.89
			C34.97,22.16,33.88,23.9,32.25,25.01"/>
		<path class="st1" d="M30.04,18.87c-0.1,2.37-0.99,4.42-2.54,6.19l-0.04,0.08c-0.31-0.36-0.73-0.8-1.13-1.11
			c0.23-0.15,0.42-0.44,0.59-0.65c0.96-1.32,1.53-2.81,1.61-4.49l-0.04-0.15l0.08,0.06h1.45l0.08-0.04L30.04,18.87z M20.75,28.14
			l-0.1,0.06c0.04-0.52,0.04-1.07,0-1.59c0.25,0.08,0.52,0,0.8,0l0.78-0.15c0.38,0.08,0.65,0.69,1.09,0.31
			c0.15-0.17,0.4-0.17,0.5-0.4c0.25-0.08,0.31-0.34,0.48-0.5c0.17-0.48,0.71-0.55,1.03-0.88c0.23-0.21,0.55-0.4,0.69-0.67l0.02,0.13
			l1.07,1.03C25.3,27.11,23.19,28.03,20.75,28.14z M20.73,24.91c0.19,0.08,0.5-0.08,0.61,0.13c-0.06,0.13-0.15,0.23-0.1,0.36
			c0.08,0.19,0.19,0.44,0.42,0.46c0.06,0.08,0.15,0.1,0.23,0.13c-0.4,0.06-0.84,0.04-1.22,0.17c0.04-0.42,0-0.84,0-1.26l-0.08-0.1
			C20.65,24.8,20.69,24.87,20.73,24.91z M20.35,22.33c-0.1,0.02-0.21,0-0.29-0.04c-0.04,0-0.02-0.06-0.04-0.08
			c0.15,0,0.21-0.17,0.38-0.15c0.08-0.08,0.1-0.21,0.23-0.27c-0.04-0.13,0.13-0.04,0.15-0.13c0.04-0.04,0.1-0.08,0.17-0.04
			c0.1,0.15,0.31,0.08,0.42,0.25c0.04,0.02,0.06-0.04,0.06-0.06v-0.06c0.17-0.02,0.25,0.21,0.42,0.06c0.04-0.04,0.02-0.1,0-0.15
			c-0.02,0-0.04-0.02-0.04-0.04c0.13-0.06,0.19,0.17,0.34,0.1c0.13-0.1,0.19-0.21,0.36-0.21l0.04,0.04
			c0.02,0.29-0.23,0.48-0.46,0.63c-0.15,0.06-0.42,0.04-0.4,0.27c-0.17,0.15-0.31-0.08-0.52-0.02c-0.1-0.04,0-0.19-0.15-0.21
			C20.77,22.29,20.52,22.1,20.35,22.33z M19.14,28.07c-2.03-0.27-3.82-1.15-5.39-2.52l1.05-1.05l0.02-0.06
			c1.45,1.38,3.19,2.1,5.16,2.22l0.15-0.04l-0.04,0.08v1.36l0.08,0.13C19.83,28.09,19.45,28.14,19.14,28.07z M12.01,23.27
			c-0.73-1.36-1.15-2.83-1.24-4.45h1.41l0.15-0.04c-0.02,0.08-0.02,0.17-0.02,0.29v-0.02c-0.04,0.02,0.02,0.04,0.02,0.08
			c0.02,0.55,0.13,1.05,0.25,1.53l0.06,0.1c-0.1-0.1-0.15-0.21-0.23-0.31c-0.13,0.02-0.25,0.04-0.34,0.13
			c0.06,0.15-0.08,0.1-0.15,0.15c-0.02-0.04-0.06-0.08-0.1-0.1c-0.1,0-0.21,0.02-0.27,0.13c0.02,0.08-0.06,0.1-0.1,0.17
			c-0.02,0.23-0.1,0.52,0.06,0.71c0,0.17,0.08,0.31,0.21,0.42c0.04,0,0.08-0.02,0.1-0.04c0.15,0.1,0.21,0.36,0.42,0.29
			c0.06-0.02,0.04-0.08,0.06-0.15c0.1,0.1,0.15,0.31,0.36,0.29c0.04,0.04,0.08,0.15,0.17,0.15c0.21-0.06,0.15,0.25,0.29,0.34
			c0.13,0.08,0.19,0.25,0.36,0.17l0.06-0.08c0.06,0.04,0,0.15,0.06,0.19c0.08,0.17,0.25,0.27,0.42,0.31
			c0.15,0.17,0.29,0.36,0.46,0.48l-0.13,0.04l-1.01,1.05C12.89,24.55,12.36,23.94,12.01,23.27z M10.83,17.36
			c0.25-2.1,1.15-3.92,2.6-5.54l0.04,0.15c0.34,0.34,0.69,0.69,1.03,1.01c-0.29,0.19-0.44,0.52-0.67,0.78
			c-0.9,1.28-1.43,2.73-1.51,4.34l0.04,0.19c-0.5-0.04-1.05-0.04-1.57,0C10.81,17.97,10.77,17.65,10.83,17.36z M14.61,10.79
			c1.61-1.15,3.42-1.85,5.45-1.93L20,8.99l0.02,1.22l0.04,0.13c-1.97,0.08-3.69,0.84-5.18,2.18l-0.02,0.06
			c-0.34-0.36-0.71-0.78-1.11-1.07h-0.04C14.02,11.32,14.29,11,14.61,10.79z M20.08,14.38c-0.27-0.06-0.5,0.06-0.75,0.08
			c-0.57,0.15-1.07,0.46-1.55,0.8c-0.02,0.04-0.04,0.08-0.08,0.1c-0.36-0.31-0.69-0.73-1.07-1.01c0.99-0.8,2.1-1.34,3.38-1.43
			l0.08-0.04C20.02,13.37,20.02,13.9,20.08,14.38z M19.68,16.02c-0.02-0.06,0.06-0.15-0.02-0.19c-0.23,0.1-0.15,0.36-0.29,0.52
			c-0.02,0.13-0.19,0.06-0.27,0.15c-0.06-0.1-0.19-0.08-0.27-0.04c-0.13,0-0.15-0.25-0.27-0.13c-0.04,0.04-0.02,0.13-0.1,0.1
			c-0.02-0.04-0.06-0.04-0.08-0.06c0-0.08,0.13-0.06,0.08-0.15c-0.08-0.17-0.29-0.15-0.42-0.25H17.9c0.59-0.63,1.34-0.9,2.16-1.03
			c0,0.36-0.04,0.78,0.08,1.11C20.02,15.89,19.83,16.08,19.68,16.02z M18.28,20.13c0.08-0.08,0.17-0.21,0.21-0.34l0.17,0.08
			C18.49,19.9,18.4,20.06,18.28,20.13L18.28,20.13z M19.89,21.66c-0.06,0.13-0.02,0.29-0.04,0.42c-0.67-0.13-1.28-0.4-1.82-0.84
			c0.31-0.34,0.71-0.65,0.94-1.01c0.02,0.17,0.23,0.23,0.36,0.31c0.27,0.13,0.59,0.31,0.9,0.19c-0.02,0.02-0.04,0.04-0.06,0.06
			c0.08,0.08-0.06,0.17,0.04,0.25c0.02,0.06-0.06,0.06-0.06,0.1c0.04,0.08-0.02,0.25,0.13,0.29c0.04,0.04,0,0.13-0.06,0.13
			C20.08,21.55,19.96,21.55,19.89,21.66z M16.77,16.2c-0.15,0.08-0.25,0.23-0.34,0.36c-0.13,0.08-0.27,0.06-0.38,0.21
			c0,0.06,0.06,0.13,0,0.17c-0.13,0.1-0.36-0.02-0.42,0.19c-0.02,0.19-0.25,0.29-0.23,0.5c-0.13,0.08-0.1,0.23-0.08,0.36
			c0.06,0.08-0.02,0.23,0.08,0.29c-0.19-0.02-0.46-0.06-0.63,0.02c0.1-0.23,0.06-0.5,0.13-0.75c0.19-1.05,0.67-1.97,1.36-2.81
			c0.36,0.34,0.73,0.75,1.11,1.05C17.08,15.78,17.08,16.2,16.77,16.2z M16.08,22.18l-0.04-0.31c-0.29-0.25-0.19-0.71-0.25-1.03
			c-0.21-0.17-0.04-0.42-0.19-0.61c0-0.29-0.46-0.4-0.31-0.71c-0.06-0.08-0.13-0.19-0.06-0.29c0.08-0.1,0.29,0,0.36-0.15l0.04-0.27
			c0.1-0.06,0.25,0.08,0.31-0.06c0.1-0.25-0.38-0.57,0.04-0.69c0.15-0.02,0.31-0.04,0.38,0.13c0.02,0.19,0.08,0.4,0,0.59
			c0.13,0.04,0.02,0.17,0.02,0.25c-0.08,0.04-0.15,0.13-0.25,0.08c-0.04-0.06-0.1-0.19-0.21-0.17c-0.08,0.1,0.02,0.21,0.02,0.34
			c-0.02,0.06,0,0.15-0.04,0.21c-0.04-0.02-0.06-0.04-0.13-0.04c-0.08,0.04-0.02,0.15,0,0.19c0.08,0.06,0.15,0.15,0.27,0.15
			l0.04-0.06c-0.02-0.17,0.06-0.29,0.06-0.44l0.15,0.08c0.13,0.63,0.42,1.2,0.78,1.74l0.19,0.19c-0.46,0.4-0.9,0.88-1.3,1.32l0,0
			c0-0.02-0.02-0.1-0.08-0.06C15.82,22.35,16.14,22.41,16.08,22.18z M19.31,23.98l0.25,0.1c-0.88-0.21-1.82-0.52-2.58-1.15
			c-0.13-0.08-0.21-0.25-0.38-0.25c0.36-0.29,0.71-0.67,1.01-1.03c0.13,0.25,0.42,0.38,0.63,0.55c0.38,0.17,0.78,0.5,1.24,0.42
			c-0.15,0.04-0.27,0.13-0.38,0.25c-0.06,0.15-0.04,0.34-0.23,0.4C18.87,23.52,19.12,23.77,19.31,23.98z M17.8,20.02
			c0,0.04,0.06,0.1,0.13,0.06c0.06-0.08-0.13-0.21,0-0.25c0.08,0.08,0.04,0.25,0.08,0.36c0.04,0.06,0.06,0.13,0.04,0.19
			c-0.15,0.17-0.34,0.31-0.42,0.5c-0.08-0.23-0.29-0.42-0.38-0.65c-0.15-0.27-0.23-0.57-0.36-0.82c0.13,0.15,0.44-0.02,0.44,0.27
			c0.02,0.02,0.04,0,0.08,0c0.04-0.04,0.04-0.04,0.1-0.02c0.02,0.04,0.15,0.08,0.04,0.13C17.59,19.9,17.69,20,17.8,20.02z
			 M20.06,12.39c-0.27-0.06-0.52,0.04-0.8,0.06c-1.13,0.23-2.18,0.71-3.04,1.53l-0.04-0.1c-0.34-0.31-0.65-0.71-1.03-0.94
			c0.31-0.19,0.61-0.48,0.92-0.69c1.17-0.8,2.5-1.24,3.96-1.32C20,11.4,20.04,11.91,20.06,12.39z M14.32,18.28l-0.13-0.04
			l-1.38,0.02c0.13-1.55,0.55-2.98,1.45-4.19l0.55-0.69v-0.1c0.31,0.38,0.69,0.73,1.07,1.07c-1.01,1.07-1.51,2.37-1.61,3.8
			C14.27,18.2,14.27,18.26,14.32,18.28z M13.29,20.63c-0.15,0.02-0.1,0.17-0.15,0.25c0.02-0.36-0.15-0.69-0.19-1.05l-0.1-0.92
			l-0.06-0.08c0.44,0.06,0.94,0.02,1.41,0.04l0.1-0.04c-0.04,0.23-0.04,0.55,0.1,0.73c-0.06-0.06-0.15-0.23-0.27-0.23
			c-0.25,0.02-0.27,0.36-0.55,0.36c-0.21,0.17-0.25,0.42-0.29,0.67C13.39,20.42,13.22,20.52,13.29,20.63z M14.82,18.89l-0.06-0.13
			c0.15,0.1,0.31,0.08,0.48,0.04c-0.25,0.08-0.15,0.38-0.25,0.57c-0.02,0.08,0.13,0.13,0.1,0.21c-0.13,0.06-0.15,0.19-0.19,0.29
			C14.97,19.54,14.84,19.22,14.82,18.89z M20.12,26.19l-0.15-0.1c-1.89-0.1-3.5-0.88-4.91-2.1c0.23-0.02,0.31,0.27,0.57,0.21
			c0.27-0.02,0.48-0.25,0.78-0.21c0.15,0,0.31,0,0.4-0.15c0.04-0.15-0.13-0.23-0.15-0.36c0.96,0.71,2.03,1.17,3.27,1.22l0.13-0.04
			V26L20.12,26.19z M20.35,16.79l0.08,0.04c-0.1,0-0.23-0.06-0.31,0.02c-0.06,0.04-0.02,0.13,0,0.19c0.19,0.06,0.23,0.38,0.46,0.25
			c0.1,0.02,0.23,0.04,0.27,0.15c0.15,0.06,0.17,0.31,0.36,0.25c0,0.1-0.04,0.27,0.08,0.34c-0.02,0.08-0.15,0.13-0.15,0.23
			c-0.02,0.02-0.04,0.08-0.02,0.13c0.19,0.02,0.17,0.23,0.27,0.36c-0.04,0.15,0,0.29,0.15,0.38c-0.02,0.17-0.1,0.31-0.17,0.46
			c-0.19,0.1-0.52-0.15-0.59,0.21c-0.1,0.13-0.02,0.4-0.23,0.4c-0.42,0.02-0.8-0.06-1.11-0.29c0.21-0.1,0.57,0.04,0.63-0.27
			c0.06-0.04,0.08-0.13,0.04-0.19c0.1-0.1,0.13-0.23,0.19-0.34c-0.08-0.08-0.04-0.13-0.02-0.21c-0.21-0.21-0.48-0.1-0.75-0.1
			c-0.17,0.08,0,0.27-0.1,0.38c-0.21,0.02-0.21,0.23-0.36,0.34c-0.08-0.04-0.15-0.15-0.15-0.23h0.02c-0.02,0.04,0.02,0.08,0.04,0.08
			c0.19,0.02,0.13-0.19,0.19-0.29c0.02-0.13,0.31-0.29,0.08-0.38c-0.02-0.04,0.02-0.13-0.04-0.15c-0.06,0.02-0.19,0.02-0.19,0.15
			c0.04,0.08,0,0.19-0.08,0.25h-0.04c0.02-0.06-0.02-0.1-0.06-0.13c-0.13,0-0.21,0.08-0.34,0.06c-0.17,0.04-0.34,0.06-0.5,0.06
			c-0.02-0.1,0.13-0.06,0.17-0.15c-0.02-0.15,0.08-0.25,0.15-0.36c0.04-0.04,0.13-0.02,0.17,0c0.04,0.04,0.08,0.08,0.15,0.06
			l0.04-0.08c0.15,0.08,0.06,0.52,0.36,0.34c0.04-0.19,0-0.42,0.08-0.59c-0.06-0.17,0.1-0.23,0.15-0.34
			c0.15,0.02,0.15-0.17,0.21-0.25c0.23-0.06,0.48-0.13,0.65-0.38c-0.06-0.13-0.02-0.31-0.13-0.42
			C20.1,16.75,20.27,16.71,20.35,16.79z M21.21,10.96c0.88,0.1,1.68,0.36,2.45,0.71c0.13,0.17,0.34,0.27,0.38,0.48
			c-0.13,0.31,0.42,0.29,0.17,0.61c-0.02,0.1,0.06,0.15,0.1,0.23c0.02,0.08-0.02,0.21,0.08,0.27c0.19,0.04,0.25-0.21,0.44-0.15
			c0.23,0.17,0.29,0.46,0.29,0.71c0.02,0.17,0.17,0.27,0.31,0.34c0.29-0.08,0.17,0.25,0.36,0.34c0.23,0.02,0.36,0.34,0.61,0.29
			c0.23,0.17,0.36,0.42,0.57,0.61c0,0.04,0.02,0.08,0.06,0.1c0.13,0.02,0.19-0.06,0.29-0.06c0.4,0.8,0.59,1.68,0.65,2.62l0.04,0.1
			c-0.48,0-0.99,0-1.49,0.04c-0.02-0.29,0-0.59-0.15-0.82c0.08-0.15,0.1-0.36,0.08-0.52c-0.02-0.08-0.1,0-0.13,0
			c-0.17,0.15-0.19,0.38-0.27,0.57c-0.15,0.19-0.17,0.5-0.08,0.71l0.06,0.06h-0.57c0.15-0.08-0.13-0.25,0.02-0.4l0.25-0.04
			c0.08-0.19,0.29-0.31,0.27-0.55c0.1-0.15,0.21-0.31,0.13-0.5c-0.13-0.27,0.21-0.57-0.04-0.82c0.02-0.08-0.02-0.19-0.13-0.19
			c-0.08-0.02-0.17,0-0.17-0.1c0.04-0.06,0.17-0.15,0.13-0.25c-0.06-0.08-0.15,0-0.23-0.02c-0.02-0.13,0.21-0.25,0-0.36
			c-0.15-0.02-0.21,0.15-0.36,0.08c-0.06-0.04-0.1-0.15-0.04-0.21l-0.29-0.38c-0.02-0.04-0.13,0.02-0.13-0.04
			c0.02-0.29-0.34-0.46-0.36-0.75c-0.1-0.1-0.02-0.29-0.17-0.38c-0.08-0.06-0.17-0.13-0.29-0.08c-0.13-0.19-0.27-0.36-0.44-0.52
			c-0.04-0.02-0.08,0.02-0.1,0.04c0.02,0.15,0.19,0.23,0.19,0.38c-0.02,0-0.04,0-0.06,0.02c0.02,0.15,0.15,0.27,0.23,0.36
			c-0.8-0.61-1.74-0.92-2.73-1.09c-0.19,0-0.4-0.08-0.59-0.02c0.04-0.44,0.02-0.94,0.02-1.41l-0.04-0.1
			C20.8,10.98,21,10.92,21.21,10.96z M21.61,8.93c2.03,0.27,3.84,1.09,5.37,2.54l-0.17,0.06c-0.27,0.29-0.61,0.55-0.75,0.88
			c-0.02-0.1-0.17-0.17-0.21-0.25c-0.02-0.27-0.29-0.55-0.55-0.69c-0.19-0.04-0.25-0.34-0.48-0.25c-0.21-0.17-0.46-0.04-0.65,0.04
			v0.02c-0.96-0.55-2.03-0.88-3.19-0.96c-0.06,0-0.08,0.04-0.15,0.04c0.06-0.04,0.02-0.17,0.02-0.23c-0.02-0.04-0.08-0.1-0.17-0.06
			c-0.02,0.04-0.04,0.08-0.04,0.13c0.02-0.44,0.04-1.01-0.02-1.41C20.92,8.91,21.28,8.86,21.61,8.93z M22.56,21.99
			c0.44,0.04,0.86,0.15,1.26,0.29c0.1,0,0.21,0,0.27-0.08c-0.02-0.17,0.17-0.25,0.15-0.42c0.08-0.15,0.02-0.34,0.15-0.46
			c0.02-0.17,0-0.38-0.13-0.5c-0.1-0.06-0.21,0.02-0.31,0.04c-0.13,0.08-0.08,0.36-0.29,0.29c-0.04,0.06-0.15,0.06-0.21,0.04
			c-0.02-0.02-0.04-0.02-0.04-0.06c0.15-0.08,0.42-0.02,0.44-0.27c0.1-0.1,0.29-0.06,0.4-0.17c0.08-0.13,0.1-0.23,0.21-0.34
			c0-0.04,0.02-0.1,0.02-0.15c0.02,0.06,0.02,0.17,0.13,0.21c0.13,0.04,0.17-0.06,0.21-0.15c0-0.04,0.02-0.1,0.06-0.06
			c0.13,0.1,0.29,0.02,0.44,0.02c0.13-0.04,0.27-0.06,0.4-0.06c-0.13,0.57-0.4,1.07-0.73,1.57c-0.13,0.15-0.23,0.31-0.38,0.48
			c-0.04-0.13-0.04-0.27-0.15-0.38l-0.06,0.02c-0.08,0.17-0.25,0.29-0.23,0.48c-0.13,0.19-0.42,0.02-0.61,0.13
			c-0.21,0.06-0.34-0.15-0.5-0.19c-0.19-0.08-0.42-0.08-0.59-0.19C22.49,22.03,22.51,21.99,22.56,21.99z M23.94,14.48
			c-0.27,0.29-0.61,0.59-0.84,0.9l-0.04-0.1c-0.67-0.55-1.43-0.82-2.26-0.92l-0.13,0.02v-1.36l-0.04-0.1
			c0.57,0.08,1.11,0.17,1.64,0.34c0.65,0.23,1.26,0.59,1.82,1.05l0.13,0.04L23.94,14.48z M26.06,18.78
			c-0.08,0.27-0.08,0.59-0.15,0.86c-0.02,0.04-0.02,0.1-0.04,0.15c-0.08-0.17-0.17-0.4-0.36-0.5c-0.17-0.08-0.06-0.31-0.21-0.42
			l-0.15-0.15C25.39,18.83,25.74,18.8,26.06,18.78z M25.16,16.1c0.17,0.04,0.27,0.23,0.44,0.27c0.15,0.23,0.21,0.5,0.29,0.75
			c-0.15,0.15-0.15,0.48-0.44,0.44c-0.06-0.17,0.13-0.25,0.08-0.42c0.04-0.04,0.13-0.06,0.15-0.15c-0.02-0.15-0.21-0.13-0.23-0.27
			c-0.06-0.08-0.17-0.08-0.25-0.1c-0.19-0.08-0.38,0.4-0.42,0c0.06-0.04,0.1-0.13,0.04-0.19c-0.17-0.08-0.19-0.31-0.36-0.42
			c-0.25,0-0.48-0.1-0.71-0.04c-0.15-0.04-0.34-0.15-0.46,0.02c0,0.13-0.08,0.23-0.1,0.36c-0.06-0.02-0.1-0.08-0.15-0.15
			c0.44-0.5,0.96-1.01,1.43-1.49l0.02-0.06c0.23,0.29,0.5,0.59,0.67,0.9C25.22,15.76,24.84,15.97,25.16,16.1z M22.31,20.94
			c0,0.19-0.27,0.17-0.4,0.29c-0.06-0.02-0.02-0.1,0-0.15C22.03,21.03,22.12,20.92,22.31,20.94z M21.86,16.75
			c-0.08,0.02-0.17,0.08-0.25,0.04c-0.08-0.08-0.19-0.21-0.34-0.23c-0.1,0.02-0.17,0.15-0.27,0.08c0.19-0.19,0.5-0.23,0.65-0.5
			c0.04-0.13,0.08-0.27,0.06-0.4c-0.04-0.06-0.13-0.13-0.19-0.06c-0.1,0.17-0.34,0.21-0.44,0.38l-0.36-0.13
			c-0.06-0.34,0.02-0.75-0.06-1.05c0.19,0.06,0.4,0.08,0.61,0.13c0.52,0.13,0.99,0.38,1.45,0.65c-0.1,0.04-0.21,0.17-0.29,0.25
			c0,0.08,0.1,0.06,0.13,0.13l0.1-0.04C22.45,16.39,21.93,16.33,21.86,16.75z M24.7,24.61c-0.27-0.25,0.17-0.44,0.25-0.67
			c-0.04-0.23-0.31-0.38-0.5-0.44c-0.1-0.06-0.06-0.17-0.06-0.25c0.08-0.08,0.19-0.17,0.23-0.29l0.04,0.1l0.63,0.65
			c0,0.15,0.02,0.27,0.17,0.34c0.06,0.02,0.15-0.02,0.21,0h-0.04c-0.27,0.29-0.59,0.52-0.9,0.75l-0.06,0.1
			C24.59,24.78,24.78,24.72,24.7,24.61z M25.89,23.15c-0.13-0.13-0.13-0.36-0.36-0.36c-0.08,0-0.1,0.06-0.1,0.13
			c0,0.04,0.02,0.08-0.02,0.1l-0.46-0.4c0.21-0.1,0.38-0.4,0.55-0.61c0.42-0.59,0.67-1.26,0.88-1.93c0.06,0.06,0.17,0.06,0.23,0.02
			c0.06-0.06,0.08-0.17,0.04-0.23l-0.15-0.21c0.02-0.31,0.1-0.61,0.06-0.9l0.1,0.04c0.46,0,0.94,0.02,1.41-0.02l-0.06,0.08
			c-0.13,1.82-0.75,3.48-2.03,4.82C26.04,23.5,25.87,23.33,25.89,23.15z M30.02,17.67c0.02,0.17-0.02,0.38,0.08,0.52l-1.47,0.02
			c-0.04,0.02-0.08,0.04-0.13,0.04l0.04-0.06c-0.02-1.15-0.34-2.18-0.78-3.15c-0.02-0.44-0.44-0.73-0.61-1.11
			c-0.31-0.23-0.42-0.61-0.8-0.82c-0.06-0.08-0.1-0.21-0.21-0.23l0.17-0.04c0.36-0.36,0.73-0.71,1.01-1.09
			C28.87,13.48,29.83,15.41,30.02,17.67z M29.54,14.09c-1.66-3.54-5.31-5.79-9.12-5.79c-1.68,0.02-3.21,0.4-4.61,1.09
			c-2.5,1.2-4.53,3.77-5.22,6.33c-1.11,4.32,0.4,8.68,4.09,11.22c2.66,1.91,6.9,2.26,9.9,0.82c2.66-1.11,4.93-3.86,5.62-6.56
			C30.88,18.93,30.59,16.12,29.54,14.09z"/>
		<path class="st1" d="M24.91,10.9c0,0.06,0,0.1,0.04,0.15c0.21,0.08,0.23,0.38,0.5,0.31c0.08-0.08-0.04-0.19-0.02-0.31
			c-0.04-0.1-0.13-0.15-0.23-0.19C25.07,10.98,24.99,10.79,24.91,10.9"/>
		<path class="st1" d="M20.86,10.04c0.27,0.34,0.73,0.15,1.07,0.08c0.25,0.1,0.48-0.02,0.65-0.17V9.91c-0.17-0.25-0.5-0.27-0.8-0.29
			l-0.73,0.31c-0.06-0.02-0.17-0.06-0.21,0.02C20.82,10,20.84,10.02,20.86,10.04"/>
	</g>
</g>
</svg>
