<?xml version="1.0" encoding="utf-8"?>
<!-- Generator: Adobe Illustrator 23.0.1, SVG Export Plug-In . SVG Version: 6.00 Build 0)  -->
<svg version="1.1" id="Layer_1" xmlns="http://www.w3.org/2000/svg" xmlns:xlink="http://www.w3.org/1999/xlink" x="0px" y="0px"
	 viewBox="0 0 56 56" style="enable-background:new 0 0 56 56;" xml:space="preserve">
<style type="text/css">
	.st0{fill-rule:evenodd;clip-rule:evenodd;fill:#7A7A7A;}
</style>
<path id="path10" class="st0" d="M9.19,19.55v17.28c0,0.47-0.05,0.7,0.1,0.94C9.37,37.92,9.52,38,9.65,38
	c0.18,0,0.34-0.08,0.44-0.26c0.16-0.23,0.13-0.47,0.13-0.96V19.55h0.81v17.62c0,1.2-0.44,1.8-1.38,1.8c-0.39,0-0.73-0.13-0.99-0.42
	c-0.26-0.29-0.39-0.73-0.39-1.35V19.55H9.19L9.19,19.55z"/>
<path id="polygon12" class="st0" d="M17.8,38.86l-1.3-11.87v11.87h-0.7V19.55h0.94l0,0l1.33,11.14V19.55h0.6v19.31H17.8z"/>
<path id="polygon14" class="st0" d="M25.68,28.24v0.68h-1.28v9.13h1.46v0.81h-2.6V19.55h2.42v0.83l0,0h-1.28v7.86H25.68z"/>
<path id="polygon16" class="st0" d="M50.95,16.82v1.61H5.49v-1.61l0,0H50.95z"/>
<path id="polygon18" class="st0" d="M50.95,40.29v1.61H5.49v-1.61l0,0H50.95z"/>
<path id="polygon20" class="st0" d="M53.45,43.54v1.61H2.58v-1.61l0,0H53.45z"/>
<path id="polygon22" class="st0" d="M56,46.69v1.64H0v-1.64l0,0H56z"/>
<path id="polygon24" class="st0" d="M28,6.67l22.85,6.51v1.72L27.79,8.62L5.39,15l0,0v-1.72L28,6.67z"/>
<path id="polygon26" class="st0" d="M45.67,15h-4.71l-12.78-3.46l-12.75,3.36L10.56,15l0,0l17.67-5.07L45.67,15z"/>
<path id="path28" class="st0" d="M32.16,25.12h0.99v-3.75c0,0-0.03-1.09-0.29-1.4c-0.26-0.29-0.57-0.55-1.25-0.55
	c-0.65,0.03-0.81,0.21-1.04,0.49c-0.26,0.29-0.36,0.78-0.36,1.3c0,0.52,0.03,2.84,0.1,3.62c0.08,0.75,0.81,3.83,1.22,5.31
	c0.39,1.51,0.57,2.26,0.6,2.68c0.03,0.44,0.08,1.93,0.03,2.65c-0.03,0.73,0,1.74,0,1.74s0.05,0.81-0.42,0.81
	c-0.49,0-0.44-0.81-0.44-0.81v-4.58h-0.99v4.55c0,0-0.26,1.67,1.3,1.67c1.59,0,1.59-1.48,1.59-1.48v-4.16c0,0-0.08-1.38-0.34-2.34
	c-0.26-0.94-1.09-3.93-1.28-4.76c-0.21-0.88-0.29-2.19-0.29-3.36c0-1.17,0.03-1.9,0.03-1.9s-0.03-0.55,0.42-0.55
	c0.42,0,0.39,0.57,0.39,0.57L32.16,25.12L32.16,25.12z"/>
<path id="path30" class="st0" d="M39.74,25.17h0.86v-4.5c0-0.7-0.39-1.4-1.35-1.4c-0.88,0-1.4,0.65-1.4,1.43v16.91
	c0,0.75,0.52,1.41,1.4,1.41c0.96,0,1.35-0.68,1.35-1.38v-5.07h-0.86v5.05c0,0.26,0.03,0.57-0.49,0.57c-0.55,0-0.49-0.47-0.49-0.65
	V20.75c0-0.18-0.05-0.65,0.49-0.65c0.52,0,0.49,0.34,0.49,0.6V25.17L39.74,25.17z"/>
<path id="path32" class="st0" d="M46.92,19.26c-0.88,0-1.51,0.65-1.51,1.43v16.91c0,0.75,0.62,1.41,1.51,1.41
	c0.96,0,1.46-0.68,1.46-1.38V20.67C48.38,19.97,47.88,19.26,46.92,19.26L46.92,19.26z M47.52,37.61c0,0.26-0.08,0.57-0.6,0.57
	c-0.55,0-0.6-0.47-0.6-0.65V20.75c0-0.18,0.05-0.65,0.6-0.65c0.52,0,0.6,0.34,0.6,0.6V37.61L47.52,37.61z"/>
</svg>
