<?xml version="1.0" encoding="utf-8"?>
<!-- Generator: Adobe Illustrator 23.0.1, SVG Export Plug-In . SVG Version: 6.00 Build 0)  -->
<svg version="1.1" id="Layer_1" xmlns="http://www.w3.org/2000/svg" xmlns:xlink="http://www.w3.org/1999/xlink" x="0px" y="0px"
	 viewBox="0 0 1920 1080" style="enable-background:new 0 0 1920 1080;" xml:space="preserve">
<style type="text/css">
	.st0{fill:none;stroke:#F2F2F2;stroke-miterlimit:10;}
	.st1{fill:none;stroke:#F2F2F2;stroke-width:0.699;stroke-miterlimit:10;}
	.st2{stroke:#F2F2F2;stroke-width:3;stroke-miterlimit:10;}
	.st3{fill:none;stroke:#FFFFFF;stroke-miterlimit:10;}
	.st4{display:none;}
	.st5{display:inline;}
	.st6{fill:#FFFFFF;}
	.st7{opacity:0.62;}
	.st8{fill:#212121;}
	.st9{opacity:0.38;}
	.st10{fill:none;stroke:#FFFFFF;stroke-width:1.2078;stroke-miterlimit:10;}
	.st11{opacity:0.23;}
	.st12{opacity:0.1;}
	.st13{opacity:0.05;}
	.st14{fill:#1B1B1B;}
</style>
<path class="st0" d="M574.13,293.27"/>
<path class="st1" d="M574.13,309.55"/>
<path class="st2" d="M1047.11,428.6"/>
<g>
	<path class="st3" d="M1121.25,399.2"/>
</g>
<g class="st4">
	<g class="st5">
		<path class="st6" d="M1213.75,433.97c0.22,3.16-0.1,5.97-0.98,8.43c-0.87,2.46-2.19,4.53-3.94,6.22s-3.91,2.97-6.45,3.85
			c-2.55,0.88-5.28,1.31-8.2,1.31h-29.24l-4.7-67.21h27.86c4.54,0,8.48,0.81,11.82,2.42c3.34,1.61,5.93,3.89,7.78,6.83
			c1.85,2.94,2.91,6.34,3.18,10.22c0.23,3.26-0.38,6-1.82,8.23s-2.98,3.91-4.62,5.05c2.31,1.32,4.36,3.06,6.17,5.23
			C1212.42,426.72,1213.47,429.86,1213.75,433.97z M1194.39,406.88c-0.1-1.5-0.66-2.78-1.68-3.86c-1.01-1.07-2.56-1.61-4.65-1.61
			h-10.28l0.76,10.92h10.28c2.03,0,3.49-0.54,4.38-1.61C1194.1,409.66,1194.49,408.38,1194.39,406.88z M1197.18,433.02
			c-0.11-1.62-0.69-3-1.72-4.13s-2.61-1.7-4.73-1.7h-11.16l0.82,11.75h11.16c2.09,0,3.58-0.58,4.46-1.74
			C1196.91,436.03,1197.3,434.64,1197.18,433.02z"/>
		<path class="st6" d="M1281.38,453.78h-17.24l-3.83-10h-20.7l-2.57,10h-17.29l19.73-67.21h12.77L1281.38,453.78z M1255.01,430
			l-6.92-17.93L1243.3,430H1255.01z"/>
		<path class="st6" d="M1219.65,518.32c0.22,3.16-0.1,5.97-0.98,8.43c-0.87,2.46-2.19,4.53-3.94,6.22
			c-1.75,1.69-3.91,2.97-6.45,3.85c-2.55,0.88-5.28,1.31-8.2,1.31h-29.24l-4.7-67.21H1194c4.54,0,8.48,0.81,11.82,2.42
			c3.34,1.61,5.93,3.89,7.78,6.83c1.85,2.94,2.91,6.34,3.18,10.22c0.23,3.26-0.38,6-1.82,8.23s-2.98,3.91-4.62,5.05
			c2.31,1.32,4.36,3.06,6.17,5.23C1218.31,511.06,1219.36,514.2,1219.65,518.32z M1200.29,491.22c-0.1-1.5-0.66-2.78-1.68-3.86
			c-1.01-1.07-2.56-1.61-4.65-1.61h-10.28l0.76,10.92h10.28c2.03,0,3.49-0.54,4.38-1.61C1200,494.01,1200.39,492.72,1200.29,491.22z
			 M1203.08,517.36c-0.11-1.62-0.69-3-1.72-4.13s-2.61-1.7-4.73-1.7h-11.16l0.82,11.75h11.16c2.09,0,3.58-0.58,4.46-1.74
			C1202.81,520.38,1203.2,518.98,1203.08,517.36z"/>
		<path class="st6" d="M1278.15,538.13h-45.68l-4.7-67.21h45.68l1.03,14.7h-29.18l0.79,11.25h24.94l1.03,14.7h-24.94l0.83,11.85
			h29.18L1278.15,538.13z"/>
		<path class="st6" d="M1334.57,538.13h-44.71l-4.7-67.21h16.5l3.67,52.5h28.21L1334.57,538.13z"/>
	</g>
</g>
<g class="st4">
	<g class="st5">
		<path class="st6" d="M1147.55,376.15l124.86,0.34l23.68,86.06h39.27l11.95,86.86l-186.47-0.8L1147.55,376.15 M1129.29,359.2
			l1.41,18.26l13.29,172.47l1.2,15.54l15.59,0.07l186.47,0.8l19.48,0.08l-2.66-19.3l-11.95-86.86l-2.01-14.6h-14.74h-26.39
			L1288.71,372l-3.41-12.39l-12.85-0.03l-124.86-0.34L1129.29,359.2L1129.29,359.2z"/>
	</g>
</g>
<g class="st7">
	<g>
		<path class="st8" d="M1427.56,342.37l31.04,79.48l40.33-3.18l37.84,170.94l-274.29,20.48l-39.57-252.05L1427.56,342.37
			 M1445.68,313.55l-20.2,1.55l-204.64,15.66l-29.53,2.26l4.59,29.26l39.57,252.05l3.91,24.92l25.15-1.88l274.28-20.48l31.5-2.35
			l-6.83-30.84l-37.84-170.94l-5.14-23.23l-23.72,1.87l-20.08,1.59l-23.65-60.56L1445.68,313.55L1445.68,313.55z"/>
	</g>
</g>
<g class="st9">
	<g>
		<path class="st8" d="M1449.02,254.03l45.47,94.07l60.59-10.5l93.06,302.31L1208.51,709l-96.96-401.27L1449.02,254.03
			 M1474.56,205.14l-32.49,5.17l-337.47,53.71l-47.33,7.53l11.26,46.58l96.96,401.27l9.59,39.67l40.32-6.34l439.63-69.1l50.46-7.93
			l-15.03-48.82l-93.06-302.31l-11.47-37.25l-38.4,6.66l-27.7,4.8l-30.95-64.02L1474.56,205.14L1474.56,205.14z"/>
	</g>
</g>
<g>
	<path class="st10" d="M1462.91,472.2"/>
</g>
<g class="st11">
	<g>
		<path class="st8" d="M1463.7,103.17l71.03,112.07l80.45-24.23l227.56,498.18l-693.05,195.34L916.95,258.45L1463.7,103.17
			 M1495.58,19.66l-51.44,14.61L897.38,189.55l-74.58,21.18l27.02,72.67l232.74,626.08l23.01,61.89l63.56-17.91l693.06-195.34
			l80.45-22.67l-34.73-76.02l-227.56-498.18l-25.97-56.85l-59.84,18.02l-28.4,8.55l-41.93-66.16L1495.58,19.66L1495.58,19.66z"/>
	</g>
</g>
<g class="st12">
	<g>
		<path class="st8" d="M1345.84-140.1L1506.09,2.76l114.42-73.41l575.16,674.14L1204,1215L564.03,344.14L1345.84-140.1
			 M1358.37-284.18l-73.55,45.56L503,245.62l-106.65,66.06l74.29,101.09l639.98,870.86l63.27,86.09l90.94-56.08l991.67-611.51
			l115.11-70.98l-87.77-102.88l-575.16-674.14l-65.63-76.92l-85.11,54.6l-40.39,25.91l-94.59-84.33L1358.37-284.18L1358.37-284.18z"
			/>
	</g>
</g>
<g class="st13">
	<g>
		<path class="st8" d="M1092.37-517.91l306.44,163.56l151.95-159.05l1161.37,840.85L1385.84,1667L47.57,541.54L1092.37-517.91
			 M1528.2-761.22l-113.02,118.3l-53.64,56.14l-180.89-96.55l-123.5-65.92l-98.3,99.67L-85.94,409.88L-228.46,554.4l155.34,130.64
			L1265.15,1810.5l132.3,111.26l121.63-122.84L2845.37,459.37l153.95-155.49l-177.23-128.32L1660.72-665.27L1528.2-761.22
			L1528.2-761.22z"/>
	</g>
</g>
<g>
	<path class="st14" d="M1490.45,570.03c-6.95,0-13.91,0-20.86,0c-0.14-0.07-0.34-0.14-0.47-0.14c-9.11,0-18.23-0.07-27.41-0.07
		c-0.41,0-0.88-0.07-1.28-0.07c-13.91-0.07-27.82-0.14-41.72-0.2c-18.97-0.07-37.94-0.2-56.85-0.27
		c-13.23-0.07-26.4-0.07-39.63-0.07c-4.12,0-8.24-0.07-12.35-0.07c-0.68,0-0.95-0.14-1.01-0.88c-0.2-3.04-0.47-6.14-0.68-9.18
		c-0.74-9.86-1.49-19.71-2.23-29.5c-0.95-11.88-1.89-23.83-2.77-35.71c-0.81-10.94-1.62-21.81-2.5-32.74
		c-1.01-12.89-2.03-25.79-3.04-38.75c-1.15-13.43-2.16-26.87-3.24-40.3c-0.07-0.81,0.07-1.08,1.01-1.08
		c4.39,0.07,8.78,0.07,13.16,0.07c14.85,0.07,29.71,0.07,44.56,0.14c7.43,0,14.85,0.07,22.35,0.07c14.11,0,28.22,0,42.4,0.07
		c6.62,0,13.23,0.07,19.78,0c0.74,0,1.08,0.14,1.35,0.95c6.55,23.83,13.1,47.6,19.58,71.43c0.27,0.95,0.68,1.15,1.55,1.15
		c11.14,0,22.35,0,33.49-0.07c0.74,0,1.15,0.14,1.22,1.01c0.54,4.05,1.08,8.17,1.69,12.22c1.28,9.59,2.63,19.24,3.92,28.83
		c1.42,10.19,2.84,20.32,4.25,30.52c1.42,10.33,2.84,20.66,4.25,30.99C1489.44,562.26,1489.91,566.11,1490.45,570.03z
		 M1387.36,549.1v0.07c8.91,0,17.82,0,26.73,0c5.33,0,10.73,0.14,16.07,0.14c11.95,0.07,23.9,0.07,35.85,0.07
		c0.74,0,0.95-0.14,0.88-0.95c-1.08-7.7-2.16-15.46-3.17-23.16c-1.22-9.05-2.5-18.03-3.71-27.07c-1.01-7.22-2.03-14.52-2.97-21.74
		c-0.14-1.08-0.61-1.28-1.55-1.28c-10.33,0.07-20.73,0-31.06,0.07c-0.81,0-1.15-0.2-1.42-1.01c-2.9-10.8-5.87-21.54-8.84-32.34
		c-3.58-13.1-7.22-26.13-10.8-39.22c-0.2-0.68-0.47-0.95-1.22-0.95c-2.5,0-4.93-0.07-7.43-0.07c-7.49,0-14.99,0-22.41-0.07
		c-14.11,0-28.15,0-42.26-0.07c-0.27,0-0.47,0-0.74,0c-10.67,0.07-21.33,0.07-31.93,0c-0.68,0-0.88,0.2-0.81,0.88
		c0.34,3.44,0.61,6.95,0.81,10.4c1.22,15.6,2.43,31.12,3.58,46.72c1.08,14.04,2.16,28.15,3.24,42.2
		c1.15,15.39,2.36,30.72,3.58,46.11c0.07,0.74,0.27,0.95,1.01,0.95c3.17,0,6.35,0.07,9.45,0.07c14.04,0.07,28.09,0.14,42.13,0.14
		c8.71,0,17.42,0.07,26.13,0.07C1386.75,549.1,1387.02,549.1,1387.36,549.1z"/>
	<path class="st14" d="M1345.16,438.38c1.15,0.74,2.23,1.55,3.31,2.43c3.17,2.7,4.39,6.28,4.59,10.33c0.27,5.27-1.08,9.92-5.4,13.3
		c-2.63,2.09-5.81,3.11-9.11,3.31c-8.84,0.34-17.69,0-26.46,0.14c-0.88,0-0.81-0.54-0.88-1.08c-0.27-3.78-0.54-7.56-0.81-11.34
		c-0.61-8.71-1.22-17.42-1.82-26.19c-0.41-6.01-0.81-12.08-1.28-18.09c-0.07-0.68,0.14-0.81,0.81-0.81c8.17,0,16.34-0.07,24.44,0.07
		c5.74,0.14,10.87,1.96,14.45,6.75c3.11,4.12,4.19,8.84,3.17,13.91c-0.47,2.5-2.09,4.46-3.85,6.21
		C1346.04,437.64,1345.64,437.97,1345.16,438.38z M1330.04,455.06c1.55,0,3.11,0,4.66,0c1.69-0.07,2.97-0.81,3.71-2.36
		c1.15-2.7,0-7.43-4.59-7.49c-3.11-0.07-6.14,0-9.25,0c-0.54,0-0.81,0.07-0.74,0.74c0.27,2.84,0.47,5.74,0.61,8.57
		c0.07,0.54,0.27,0.68,0.74,0.61C1326.87,455.06,1328.42,455.06,1330.04,455.06z M1327.68,423.05c-1.69,0-3.11,0-4.46,0
		c-0.68,0-0.95,0.14-0.88,0.88c0.2,2.57,0.41,5.2,0.54,7.76c0.07,0.68,0.41,0.74,0.95,0.74c2.7,0,5.33,0,8.03,0
		c0.27,0,0.47,0,0.74-0.07c2.43-0.34,3.78-1.76,3.92-4.05c0-2.43-1.42-4.46-3.58-5C1331.12,422.85,1329.23,423.12,1327.68,423.05z"
		/>
	<path class="st14" d="M1350.23,510.42c0.34,0.27,0.68,0.47,1.01,0.68c4.73,3.04,6.82,7.36,6.89,12.89
		c0.14,9.32-5.67,15.19-14.79,15.73c-8.71,0.54-17.42,0.07-26.13,0.2c-0.95,0-0.95-0.54-0.95-1.15c-0.34-4.93-0.68-9.79-1.01-14.72
		c-0.61-8.71-1.22-17.42-1.82-26.19c-0.34-4.86-0.68-9.72-1.01-14.58c-0.07-0.68,0-0.95,0.81-0.95c8.1,0.07,16.2-0.07,24.37,0.07
		c5.47,0.14,10.46,1.76,14.04,6.08c3.71,4.46,5,9.72,3.44,15.39C1354.35,506.63,1352.32,508.59,1350.23,510.42z M1335.04,527.09
		c1.55,0,3.11,0,4.66,0c1.28,0,2.43-0.41,3.24-1.55c1.22-1.76,1.22-3.65,0.41-5.54c-0.81-1.82-2.3-2.77-4.25-2.77
		c-3.17-0.07-6.28,0-9.45-0.07c-0.61,0-0.74,0.2-0.68,0.74c0.2,2.84,0.47,5.67,0.61,8.44c0.07,0.61,0.27,0.74,0.81,0.68
		C1331.86,527.02,1333.42,527.09,1335.04,527.09z M1332.74,495.16c-1.69,0-3.04,0.07-4.39,0c-0.81-0.07-1.01,0.2-0.95,1.01
		c0.2,2.5,0.41,5,0.47,7.56c0.07,0.68,0.34,0.74,0.88,0.74c2.7,0,5.47,0,8.17,0c0.14,0,0.34,0,0.47-0.07
		c2.57-0.34,3.92-1.69,4.05-4.05c0.14-2.36-1.42-4.46-3.65-5C1336.05,494.89,1334.23,495.23,1332.74,495.16z"/>
	<path class="st14" d="M1384.46,482.4c6.14,0,12.35,0,18.5,0c0.81,0,1.08,0.2,1.08,1.01c0.2,3.51,0.41,7.02,0.74,10.53
		c0.07,1.01-0.14,1.22-1.15,1.22c-7.49-0.07-15.06,0-22.55-0.07c-0.95,0-1.22,0.27-1.08,1.15c0.2,2.43,0.41,4.86,0.47,7.29
		c0.07,0.88,0.41,1.08,1.22,1.08c6.35-0.07,12.62,0,18.97-0.07c1.01,0,1.28,0.34,1.35,1.28c0.2,3.51,0.47,7.02,0.74,10.53
		c0.07,0.88-0.27,0.88-0.95,0.88c-6.41,0-12.83,0-19.17,0c-0.88,0-1.22,0.14-1.08,1.15c0.27,2.63,0.47,5.27,0.54,7.9
		c0.07,0.81,0.27,1.08,1.08,1.08c7.56-0.07,15.12,0,22.68-0.07c0.95,0,1.28,0.2,1.28,1.22c0.14,3.51,0.41,7.02,0.74,10.53
		c0.07,0.81-0.2,0.95-0.88,0.95c-12.42,0-24.78,0-37.2,0c-0.74,0-0.95-0.27-0.95-0.95c-0.41-6.41-0.88-12.83-1.35-19.24
		c-0.61-8.71-1.22-17.49-1.82-26.19c-0.27-3.44-0.47-6.95-0.74-10.4c-0.07-0.88,0.47-0.74,0.95-0.74
		C1372.1,482.4,1378.31,482.4,1384.46,482.4z"/>
	<path class="st14" d="M1410.79,467.82c-4.86,0-9.45,0-14.11,0c-0.61,0-0.81-0.34-1.01-0.81c-0.88-2.3-1.76-4.52-2.57-6.82
		c-0.27-0.68-0.54-1.01-1.35-0.95c-5.27,0.07-10.46,0.07-15.73,0c-0.74,0-1.01,0.2-1.22,0.95c-0.54,2.23-1.15,4.46-1.69,6.75
		c-0.14,0.68-0.34,0.95-1.08,0.95c-4.39,0-8.71-0.07-13.1,0c-1.15,0-0.74-0.54-0.61-1.15c3.85-13.03,7.63-25.99,11.48-39.02
		c1.62-5.54,3.24-11,4.86-16.54c0.2-0.68,0.47-0.88,1.15-0.88c3.04,0.07,6.08,0.07,9.11,0c0.88,0,1.15,0.41,1.42,1.08
		c6.28,14.52,12.56,29.03,18.9,43.55C1407.07,459.17,1408.9,463.43,1410.79,467.82z M1382.3,432.3c-1.35,5-2.57,9.65-3.85,14.38
		c-0.2,0.74,0,0.81,0.61,0.81c2.7,0,5.4,0,8.17,0c0.74,0,0.95-0.14,0.61-0.88c-0.47-1.15-0.95-2.36-1.42-3.58
		C1385.13,439.53,1383.78,436.08,1382.3,432.3z"/>
	<path class="st14" d="M1436.91,539.85c-5.94,0-11.81,0-17.76,0c-0.81,0-1.22-0.07-1.28-1.08c-0.68-10.06-1.42-20.19-2.09-30.25
		c-0.61-8.37-1.15-16.74-1.76-25.11c-0.07-0.81,0.07-1.08,0.95-1.08c4.05,0.07,8.1,0.07,12.15,0c0.81,0,1.08,0.2,1.15,1.01
		c0.34,5,0.68,9.99,1.01,14.92c0.68,9.38,1.28,18.7,1.89,28.09c0.07,0.88,0.54,0.81,1.08,0.81c7.29,0,14.58,0,21.87,0
		c1.08,0,1.28,0.27,1.35,1.28c0.14,3.24,0.47,6.55,0.68,9.79c0.14,1.55,0.07,1.55-1.42,1.55
		C1448.73,539.85,1442.85,539.85,1436.91,539.85z"/>
</g>
</svg>
