<?xml version="1.0" encoding="utf-8"?>
<!-- Generator: Adobe Illustrator 23.0.1, SVG Export Plug-In . SVG Version: 6.00 Build 0)  -->
<svg version="1.1" id="Layer_1" xmlns="http://www.w3.org/2000/svg" xmlns:xlink="http://www.w3.org/1999/xlink" x="0px" y="0px"
	 viewBox="0 0 125 40" style="enable-background:new 0 0 125 40;" xml:space="preserve">
<style type="text/css">
	.st0{fill:#0F59A8;}
</style>
<g>
	<path class="st0" d="M15.48,18.14c-0.12,0.38-0.24,0.74-0.35,1.11c-1.1,3.44-2.19,6.89-3.28,10.33c-0.01,0.03-0.02,0.07-0.03,0.1
		c-0.04,0.12-0.04,0.12-0.16,0.12c-0.04,0-0.07,0-0.11,0c-1.29,0-2.58,0-3.87,0c-0.26,0-0.22,0.02-0.29-0.22
		c-1.3-4.29-2.6-8.58-3.89-12.87c-0.62-2.06-1.25-4.12-1.87-6.18c-0.02-0.05-0.03-0.11-0.05-0.16c-0.01-0.03,0.02-0.05,0.05-0.06
		c0.05,0,0.1,0,0.15,0c1.46,0,2.93,0,4.39,0c0.25,0,0.21-0.01,0.27,0.21c1.17,3.75,2.35,7.5,3.52,11.24
		c0.05,0.16,0.08,0.32,0.16,0.46c0,0,0.02,0,0.02,0c0.09-0.14,0.11-0.3,0.16-0.46c1.02-3.31,2.04-6.62,3.06-9.93
		c0.14-0.44,0.27-0.89,0.41-1.33c0.01-0.04,0.03-0.08,0.04-0.12c0.01-0.06,0.06-0.08,0.11-0.08c0.05,0,0.1,0,0.15,0
		c1.01,0,2.03,0,3.04,0c0.01,0,0.03,0,0.04,0c0.23,0,0.19-0.01,0.26,0.2c1.14,3.83,2.29,7.66,3.43,11.5
		c0.02,0.08,0.02,0.17,0.1,0.24c0.03-0.08,0.05-0.14,0.07-0.21c1.2-3.84,2.4-7.67,3.6-11.51c0.07-0.24,0.03-0.21,0.29-0.22
		c1.44,0,2.88,0,4.32,0c0.05,0,0.1,0,0.15,0c0.05,0,0.08,0.03,0.06,0.09c-0.07,0.25-0.15,0.51-0.23,0.76
		c-1.51,4.98-3.01,9.96-4.52,14.94c-0.35,1.17-0.71,2.33-1.06,3.5c-0.01,0.03-0.01,0.06-0.02,0.08c-0.04,0.12-0.04,0.12-0.16,0.13
		c-0.11,0-0.23,0-0.34,0c-1.17,0-2.34,0-3.51,0c-0.04,0-0.07,0-0.11,0c-0.25,0-0.21,0.02-0.28-0.2c-0.4-1.24-0.8-2.48-1.19-3.73
		c-0.81-2.52-1.61-5.04-2.42-7.56C15.56,18.27,15.56,18.2,15.48,18.14z"/>
	<path class="st0" d="M88.18,16.26c0-1.9,0-3.8,0-5.69c0-0.27-0.03-0.25,0.25-0.25c1.35,0,2.7,0,4.05,0c0.32,0,0.28-0.03,0.28,0.27
		c0,3.49,0,6.98,0,10.47c0,0.52,0.05,1.04,0.18,1.55c0.22,0.86,0.65,1.58,1.35,2.13c0.47,0.37,1.01,0.62,1.59,0.77
		c0.67,0.18,1.35,0.21,2.04,0.18c0.49-0.02,0.98-0.11,1.45-0.26c0.77-0.26,1.42-0.69,1.92-1.34c0.38-0.5,0.61-1.06,0.73-1.67
		c0.08-0.41,0.13-0.82,0.13-1.23c0-0.28,0-0.56,0-0.83c0-3.25,0-6.51,0-9.76c0-0.29-0.04-0.26,0.26-0.26c1.35,0,2.7,0,4.05,0
		c0.3,0,0.26-0.02,0.26,0.27c0,3.47,0,6.94,0,10.4c0,0.9-0.08,1.79-0.29,2.67c-0.21,0.89-0.55,1.74-1.04,2.52
		c-0.86,1.37-2.05,2.34-3.56,2.92c-0.72,0.27-1.45,0.45-2.21,0.56c-0.71,0.1-1.42,0.15-2.13,0.15c-0.9,0-1.8-0.07-2.68-0.24
		c-0.76-0.15-1.49-0.37-2.2-0.7c-1.63-0.77-2.8-1.99-3.56-3.61c-0.34-0.73-0.56-1.49-0.69-2.28c-0.11-0.66-0.16-1.33-0.16-2
		C88.18,19.4,88.18,17.83,88.18,16.26z"/>
	<path class="st0" d="M31.23,16.25c0-1.89,0-3.78,0-5.67c0-0.28-0.04-0.26,0.26-0.26c1.35,0,2.7,0,4.05,0c0.3,0,0.27-0.03,0.27,0.26
		c0,3.5,0,7.01,0,10.51c0,0.51,0.05,1.01,0.17,1.51c0.22,0.87,0.66,1.6,1.38,2.16c0.47,0.36,1,0.6,1.57,0.75
		c0.63,0.17,1.28,0.2,1.93,0.18c0.48-0.02,0.95-0.09,1.41-0.23c0.49-0.15,0.94-0.37,1.35-0.68c0.73-0.56,1.17-1.29,1.39-2.17
		c0.12-0.48,0.17-0.97,0.17-1.46c0-1.06,0-2.11,0-3.17c0-2.46,0-4.92,0-7.39c0-0.06,0-0.13,0-0.19c0-0.05,0.03-0.07,0.08-0.08
		c0.05,0,0.1,0,0.15,0c1.36,0,2.73,0,4.09,0c0.02,0,0.04,0,0.06,0c0.19,0,0.19,0,0.19,0.19c0,0.52,0,1.04,0,1.56
		c0,2.85,0,5.71,0,8.56c0,0.6-0.01,1.2-0.08,1.79c-0.12,1.1-0.4,2.16-0.91,3.15c-0.93,1.79-2.34,3.01-4.25,3.65
		c-0.61,0.21-1.23,0.34-1.87,0.44c-0.71,0.11-1.43,0.15-2.15,0.14c-0.89,0-1.78-0.07-2.66-0.24c-0.82-0.16-1.62-0.41-2.37-0.78
		c-1.54-0.77-2.64-1.97-3.37-3.51c-0.34-0.73-0.56-1.49-0.7-2.28c-0.11-0.68-0.16-1.36-0.16-2.05
		C31.23,19.38,31.23,17.81,31.23,16.25z"/>
	<path class="st0" d="M59.79,29.81c-2.66,0-5.32,0-7.99,0c-0.32,0-0.28,0.03-0.28-0.27c0-0.87,0-1.74,0-2.61
		c0-0.13,0.03-0.23,0.12-0.33c3.24-3.74,6.48-7.49,9.72-11.23c0.28-0.33,0.57-0.66,0.85-0.99c0.04-0.04,0.07-0.09,0.11-0.13
		c0.01-0.02,0.02-0.04,0.02-0.06c-0.01-0.03-0.04-0.03-0.07-0.03c-0.06,0-0.13,0-0.19,0c-2.21,0-4.42,0-6.64,0
		c-1.14,0-2.28,0-3.43,0c-0.25,0-0.23,0.02-0.23-0.23c0-1.13,0-2.25,0-3.38c0-0.24-0.02-0.24,0.23-0.24c0.5,0,1,0,1.5,0
		c4.75,0,9.49,0,14.24,0c0.35,0,0.3-0.05,0.3,0.31c0,0.85,0,1.7,0,2.55c0,0.05,0,0.1,0,0.15c0,0.07-0.02,0.12-0.07,0.17
		c-0.08,0.09-0.16,0.18-0.24,0.27c-1.84,2.13-3.68,4.27-5.52,6.4c-1.61,1.87-3.22,3.74-4.84,5.61c-0.02,0.02-0.04,0.04-0.06,0.07
		c-0.02,0.03-0.05,0.05-0.03,0.09c0.02,0.03,0.05,0.02,0.08,0.02c0.06,0,0.13,0,0.19,0c3.4,0,6.79,0,10.19,0
		c0.34,0,0.29-0.05,0.29,0.29c0,1.11,0,2.21,0,3.32c0,0.26,0.02,0.24-0.24,0.24C65.14,29.81,62.46,29.81,59.79,29.81z"/>
	<path class="st0" d="M78.12,29.81c-2.67,0-5.34,0-8.01,0c-0.3,0-0.26,0.03-0.26-0.26c0-0.86,0-1.71,0-2.57c0-0.04,0-0.07,0-0.11
		c-0.01-0.09,0.02-0.16,0.09-0.23c0.26-0.3,0.52-0.6,0.79-0.91c2.83-3.27,5.66-6.54,8.49-9.81c0.45-0.52,0.91-1.05,1.36-1.57
		c0.04-0.04,0.07-0.09,0.11-0.13c0.01-0.02,0-0.04-0.02-0.05c-0.01-0.01-0.03,0-0.04,0c-0.06,0-0.13,0-0.19,0
		c-3.34,0-6.68,0-10.02,0c-0.33,0-0.28,0.04-0.28-0.28c0-1.1,0-2.2,0-3.3c0-0.06,0-0.13,0-0.19c0-0.04,0.02-0.07,0.06-0.07
		c0.07,0,0.14-0.01,0.21-0.01c1.96,0,3.92,0,5.89,0c3.25,0,6.51,0,9.76,0c0.05,0,0.1,0,0.15,0c0.19,0,0.19,0,0.19,0.19
		c0,0.91,0,1.83,0,2.74c0,0.12-0.04,0.21-0.12,0.31c-0.93,1.07-1.85,2.14-2.77,3.21C81.66,18.88,79.83,21,78,23.13
		c-0.75,0.88-1.51,1.75-2.26,2.63c-0.04,0.05-0.08,0.1-0.12,0.15c-0.02,0.02,0,0.04,0.02,0.05c0.01,0.01,0.03,0,0.04,0
		c0.06,0,0.13,0,0.19,0c3.41,0,6.82,0,10.23,0c0.33,0,0.28-0.04,0.28,0.28c0,1.1,0,2.2,0,3.3c0,0.06,0,0.11,0,0.17
		c0,0.08-0.02,0.09-0.11,0.1c-0.06,0-0.13,0-0.19,0C83.43,29.81,80.77,29.81,78.12,29.81z"/>
	<path class="st0" d="M108.64,20.04c0-3.15,0-6.31,0-9.46c0-0.3-0.03-0.27,0.26-0.27c4.73,0,9.46,0,14.19,0c0.06,0,0.11,0,0.17,0
		c0.05,0,0.08,0.03,0.06,0.08c-0.04,0.16-0.08,0.32-0.13,0.48c-0.28,1.03-0.56,2.06-0.84,3.1c-0.01,0.04-0.02,0.08-0.03,0.12
		c-0.03,0.09-0.04,0.1-0.13,0.1c-0.06,0-0.13,0-0.19,0c-2.83,0-5.67,0-8.5,0c-0.07,0-0.14,0-0.21,0c-0.05,0-0.07,0.03-0.08,0.08
		c0,0.05,0,0.1,0,0.15c0,1.21,0,2.41,0,3.62c0,0.27-0.02,0.24,0.24,0.24c2.4,0,4.81,0,7.21,0c0.31,0,0.31-0.04,0.22,0.28
		c-0.28,1.01-0.55,2.02-0.82,3.03c-0.01,0.05-0.03,0.1-0.04,0.14c-0.01,0.06-0.05,0.08-0.11,0.08c-0.06,0-0.13,0-0.19,0
		c-2.08,0-4.17,0-6.25,0c-0.29,0-0.26-0.03-0.26,0.26c0,2.48,0,4.95,0,7.43c0,0.31,0.04,0.28-0.29,0.28c-1.35,0-2.7,0-4.05,0
		c-0.27,0-0.24,0.02-0.24-0.24C108.64,26.39,108.64,23.21,108.64,20.04z"/>
</g>
</svg>
